<?xml version="1.0" standalone="no"?>
<!DOCTYPE svg PUBLIC "-//W3C//DTD SVG 20010904//EN"
 "http://www.w3.org/TR/2001/REC-SVG-20010904/DTD/svg10.dtd">
<svg version="1.0" xmlns="http://www.w3.org/2000/svg"
 width="500.000000pt" height="500.000000pt" viewBox="0 0 500.000000 500.000000"
 preserveAspectRatio="xMidYMid meet">
<metadata>
Created by potrace 1.16, written by Peter Selinger 2001-2019
</metadata>
<g transform="translate(0.000000,500.000000) scale(0.100000,-0.100000)"
fill="#000000" stroke="none">
<path d="M2860 4724 c-163 -71 -204 -247 -103 -448 46 -90 51 -146 23 -261
-11 -49 -27 -96 -35 -105 -7 -8 -24 -55 -36 -105 -12 -49 -33 -115 -46 -146
-12 -31 -23 -73 -23 -94 0 -20 -16 -90 -36 -153 -30 -96 -44 -125 -78 -163
-36 -40 -42 -44 -53 -30 -7 9 -13 26 -13 39 0 17 -7 24 -28 28 -16 3 -54 28
-86 55 -61 52 -99 65 -173 56 -97 -11 -183 -109 -191 -217 -4 -50 0 -66 22
-104 14 -24 37 -54 51 -65 21 -15 24 -25 19 -46 -9 -34 -69 -95 -94 -95 -43 0
-115 -91 -190 -240 -13 -25 -35 -60 -51 -77 -15 -18 -34 -51 -40 -73 -7 -22
-32 -64 -57 -92 -64 -74 -125 -171 -180 -285 -86 -179 -205 -276 -356 -290
-55 -5 -66 -9 -66 -24 0 -23 48 -33 136 -27 l65 4 -35 -18 c-37 -19 -47 -44
-21 -54 8 -3 44 3 79 14 l64 19 -5 -33 c-8 -49 20 -45 74 11 23 25 47 45 51
45 5 0 17 -9 26 -19 22 -25 91 -37 111 -21 24 20 17 39 -19 54 -33 14 -34 16
-35 73 0 49 6 72 34 129 42 86 54 99 137 157 83 59 128 110 170 198 24 50 40
71 60 78 16 6 33 21 40 35 6 15 17 26 24 26 17 0 94 -113 94 -138 0 -11 9 -30
19 -43 10 -14 27 -55 36 -92 16 -66 16 -67 -5 -94 -11 -14 -38 -34 -59 -44
-48 -21 -61 -55 -61 -156 0 -71 -2 -77 -31 -104 -17 -16 -40 -29 -51 -29 -11
0 -39 -19 -62 -42 -23 -24 -73 -68 -110 -98 -68 -56 -137 -130 -194 -209 -25
-34 -44 -48 -83 -61 -27 -10 -63 -30 -79 -45 -15 -15 -77 -51 -137 -79 -167
-81 -307 -181 -454 -323 -72 -70 -129 -133 -129 -144 0 -24 -16 -32 -40 -19
-15 8 -23 7 -39 -9 -10 -10 -20 -24 -23 -32 -7 -21 -38 -2 -38 24 0 31 -23 62
-40 52 -12 -7 -8 -82 6 -120 4 -10 0 -15 -13 -15 -23 0 -43 -18 -43 -41 0 -9
-12 -21 -27 -27 -66 -25 -162 -51 -208 -58 -80 -10 -125 -46 -125 -99 0 -27
11 -46 53 -91 52 -56 55 -58 113 -62 48 -3 68 0 100 17 33 18 49 21 107 15
l67 -7 45 47 c25 25 45 50 45 56 0 5 15 16 34 24 19 8 40 25 47 38 36 70 169
158 237 158 17 0 34 5 37 10 14 23 245 190 303 219 101 51 211 119 306 188 49
36 124 80 165 98 92 39 291 138 340 169 20 13 91 51 159 86 l123 62 62 -30
c34 -17 89 -37 122 -46 55 -14 193 -68 374 -146 40 -17 128 -43 195 -56 162
-33 232 -69 425 -214 88 -66 180 -129 203 -139 24 -10 85 -50 137 -90 70 -53
102 -71 125 -71 26 0 45 -14 108 -78 110 -111 142 -150 173 -215 16 -31 34
-62 42 -68 21 -18 54 -3 123 56 36 31 100 77 143 103 86 51 267 210 281 248
13 31 -7 53 -57 61 -29 4 -48 -1 -102 -32 -65 -36 -67 -36 -177 -36 -61 1
-113 2 -115 4 -8 9 79 95 102 101 14 4 25 14 25 23 0 24 -75 11 -109 -19 -14
-13 -41 -31 -59 -41 -32 -18 -33 -18 -66 2 -18 11 -36 18 -39 14 -13 -13 -38
21 -33 43 5 18 -1 28 -26 46 -18 12 -82 64 -142 116 -221 187 -569 433 -643
454 -22 6 -62 33 -97 65 -100 93 -186 152 -306 211 l-117 57 5 42 c6 53 -12
83 -72 118 -66 39 -81 83 -62 183 22 119 28 237 18 359 -9 101 -14 121 -51
195 -24 49 -47 116 -56 163 -17 87 -14 108 34 237 12 32 26 97 31 145 16 130
25 183 44 233 10 25 24 76 32 114 8 37 23 79 33 92 21 27 47 179 37 218 -3 13
2 79 10 147 19 144 20 168 10 190 -6 13 2 17 43 22 147 17 240 133 229 281
-12 143 -114 236 -258 236 -36 -1 -81 -8 -100 -16z"/>
</g>
</svg>
