<?xml version="1.0" standalone="no"?>
<!DOCTYPE svg PUBLIC "-//W3C//DTD SVG 20010904//EN"
 "http://www.w3.org/TR/2001/REC-SVG-20010904/DTD/svg10.dtd">
<svg version="1.0" xmlns="http://www.w3.org/2000/svg"
 width="500.000000pt" height="500.000000pt" viewBox="0 0 500.000000 500.000000"
 preserveAspectRatio="xMidYMid meet">
<metadata>
Created by potrace 1.16, written by Peter Selinger 2001-2019
</metadata>
<g transform="translate(0.000000,500.000000) scale(0.100000,-0.100000)"
fill="#000000" stroke="none">
<path d="M2090 2979 c0 -21 -10 -25 -27 -8 -9 9 -16 7 -30 -6 -10 -10 -18 -23
-18 -29 -1 -6 -6 -10 -13 -9 -6 2 -14 -8 -18 -22 -3 -14 -10 -22 -15 -19 -5 3
-13 -3 -17 -13 -4 -10 -14 -18 -22 -18 -8 0 -19 -10 -26 -22 -6 -13 -13 -21
-15 -19 -2 2 -13 -6 -24 -17 -12 -11 -14 -17 -5 -13 8 4 6 0 -4 -8 -11 -9 -26
-16 -34 -16 -9 0 -12 -6 -8 -17 4 -10 4 -14 0 -10 -4 4 -13 -1 -21 -11 -8 -9
-11 -11 -7 -3 5 9 3 12 -4 7 -7 -4 -12 -14 -12 -22 0 -8 -5 -12 -10 -9 -6 3
-14 -4 -19 -17 -4 -13 -12 -21 -17 -19 -4 2 -16 -11 -25 -29 -17 -32 -39 -58
-25 -30 4 8 -1 4 -12 -9 -11 -14 -17 -31 -14 -40 3 -9 1 -12 -6 -7 -8 5 -12 0
-12 -14 0 -12 -4 -18 -10 -15 -6 4 -10 3 -9 -2 6 -35 -4 -43 -93 -72 -164 -52
-301 -68 -441 -51 -85 10 -186 33 -239 55 -12 5 -18 3 -18 -7 0 -19 91 -72
170 -99 47 -16 98 -23 186 -27 133 -5 231 10 362 55 41 13 76 22 79 20 6 -7
-162 -61 -242 -78 -68 -14 -285 -18 -390 -6 -65 7 -68 6 -50 -8 36 -28 148
-56 260 -65 l110 -8 -154 2 c-131 3 -151 1 -136 -10 11 -8 24 -14 31 -14 7 0
15 -3 17 -7 6 -10 -100 -9 -109 0 -11 11 -26 8 -19 -3 3 -5 1 -10 -4 -10 -6 0
-11 4 -11 8 0 5 -6 9 -12 9 -7 0 -24 3 -38 7 -19 6 -21 5 -10 -3 21 -15 8 -13
-35 4 -20 9 -46 13 -57 9 -12 -3 -18 -2 -15 3 6 10 -8 13 -51 13 -13 0 -20 5
-17 10 5 9 -16 14 -52 13 -7 -1 -13 3 -13 7 0 4 -7 11 -16 14 -8 3 -12 2 -9
-4 3 -6 1 -10 -4 -10 -6 0 -11 3 -11 8 0 4 -11 12 -25 19 -14 6 -23 7 -19 2 3
-5 0 -9 -7 -9 -7 0 -5 -8 7 -22 12 -14 14 -19 4 -13 -12 6 -12 4 1 -9 9 -10
25 -19 35 -20 10 -2 18 -9 17 -14 -2 -7 4 -9 14 -5 11 4 14 3 9 -5 -4 -7 -2
-13 3 -13 6 -1 15 -2 21 -3 5 0 14 -6 21 -13 6 -6 18 -9 27 -6 10 4 13 2 8 -5
-7 -12 28 -27 43 -18 5 4 15 0 23 -7 7 -7 27 -14 43 -15 17 -1 32 -7 33 -12 2
-6 8 -7 13 -4 14 8 70 -16 63 -27 -3 -5 -17 -1 -32 8 -26 17 -27 17 -12 -1 14
-18 14 -19 -8 -7 -13 7 -30 10 -37 7 -8 -3 -17 0 -21 5 -3 6 -15 9 -25 6 -11
-3 -19 -1 -19 3 0 4 -8 6 -19 3 -10 -2 -34 0 -54 5 -30 8 -35 7 -33 -7 2 -9
12 -21 23 -26 12 -6 27 -16 35 -23 8 -7 27 -13 41 -14 14 -1 23 -6 21 -10 -3
-4 12 -8 33 -9 21 0 33 -3 26 -5 -7 -3 -10 -11 -7 -19 4 -10 0 -12 -15 -8 -11
3 -18 9 -15 14 10 17 -13 9 -31 -11 -17 -19 -17 -20 6 -29 51 -20 65 -25 81
-26 10 -1 25 -8 35 -16 12 -10 15 -10 9 -1 -9 15 26 9 82 -14 18 -7 30 -9 27
-4 -3 6 -1 10 4 10 6 0 11 -5 11 -11 0 -6 13 -8 30 -5 22 3 30 0 30 -10 0 -9
-4 -13 -9 -10 -5 3 -11 -3 -14 -14 -3 -11 -1 -18 4 -14 5 3 9 0 9 -6 0 -7 7
-9 16 -6 9 4 23 1 31 -6 8 -6 40 -13 71 -14 31 -1 57 -3 57 -4 0 -5 71 -6 80
-1 5 2 29 4 53 2 31 -2 50 3 65 16 13 12 18 13 12 3 -8 -13 -7 -13 8 -1 13 10
17 10 17 1 0 -9 3 -10 13 -1 8 6 18 7 22 3 5 -4 4 -1 0 7 -6 11 -4 13 8 8 10
-4 17 -2 17 4 0 7 10 9 25 5 14 -4 25 -2 25 3 0 6 7 8 15 5 9 -4 15 0 15 7 0
11 2 11 10 -1 8 -12 10 -12 15 2 4 9 13 14 21 11 8 -3 14 0 14 6 0 6 7 8 15 5
8 -4 15 -1 15 6 0 6 8 10 18 8 9 -2 23 3 30 12 8 8 11 9 7 3 -10 -21 13 -15
28 7 14 19 16 17 38 -42 13 -35 24 -67 24 -73 0 -5 6 -16 13 -23 14 -16 16
-36 2 -27 -15 10 -12 -5 5 -22 9 -8 15 -23 13 -31 -2 -9 7 -27 19 -41 24 -25
32 -58 11 -45 -7 4 -8 3 -4 -5 4 -6 12 -9 17 -6 5 4 9 1 9 -4 0 -6 -5 -11 -10
-11 -6 0 -8 -11 -4 -26 5 -19 3 -25 -4 -20 -14 9 27 -96 43 -109 14 -11 30
-55 26 -69 -3 -14 19 -24 45 -21 13 1 24 -1 24 -5 0 -5 8 -7 18 -5 9 2 25 4
35 4 10 1 15 5 12 11 -3 6 1 7 9 4 10 -4 16 -1 16 7 0 9 3 10 11 2 12 -12 63
5 108 37 14 10 35 20 46 22 11 2 23 7 26 11 3 5 21 10 40 11 50 4 51 5 43 18
-4 7 -3 8 5 4 14 -9 81 12 81 25 0 6 4 8 9 4 15 -8 61 17 61 33 0 9 3 12 7 9
3 -4 12 -2 19 3 6 6 26 12 43 15 46 5 72 15 66 25 -3 4 4 6 15 3 14 -4 20 0
20 12 0 13 6 16 25 13 17 -4 25 -1 25 8 0 13 13 19 34 15 17 -3 46 11 41 20
-3 5 1 6 10 3 9 -4 21 1 29 11 7 10 22 20 32 21 11 2 37 10 58 19 29 12 35 19
27 29 -6 7 -8 16 -4 19 3 4 -2 7 -13 8 -13 0 -10 5 13 15 18 7 39 11 48 8 22
-9 9 -23 -15 -17 -11 3 -20 0 -20 -6 0 -6 -1 -14 -2 -18 -4 -11 54 -14 67 -4
5 5 23 11 38 15 15 4 25 11 22 15 -3 5 4 7 15 4 14 -4 20 0 20 11 0 16 21 21
65 18 16 -2 17 0 5 8 -12 8 -11 10 8 10 12 0 22 4 22 9 0 9 55 32 73 30 5 0
15 7 21 17 8 10 20 15 29 11 11 -4 22 2 32 16 8 12 18 21 20 20 14 -8 33 -1
53 17 12 12 38 22 58 24 23 2 42 10 53 24 9 13 30 23 50 26 18 2 36 8 40 14 3
6 20 14 36 18 17 4 36 16 43 26 9 12 20 17 33 13 12 -4 21 -1 25 9 3 9 10 13
15 10 5 -3 12 2 15 10 3 9 13 16 20 16 8 0 17 6 20 14 3 8 13 12 25 9 10 -3
19 0 19 6 0 6 7 11 15 11 8 0 15 5 15 10 0 6 6 10 14 10 8 0 16 7 20 15 3 8 9
14 13 14 15 -4 43 13 37 22 -4 8 17 14 39 10 4 0 7 6 7 14 0 9 7 15 17 13 10
-2 22 7 30 22 7 14 13 21 13 17 0 -4 9 -3 20 3 11 6 18 15 15 21 -9 14 -18 11
-52 -19 -17 -16 -52 -42 -79 -58 -26 -16 -62 -38 -80 -49 -60 -38 -149 -90
-159 -94 -5 -2 -26 -14 -45 -26 -59 -37 -99 -47 -122 -31 -18 13 -14 17 65 57
117 59 323 193 319 208 -1 7 2 10 8 6 13 -8 72 34 65 46 -4 5 0 6 8 3 21 -8
30 11 12 26 -20 17 -19 27 5 40 16 9 20 8 20 -5 0 -8 -8 -15 -17 -15 -16 0
-16 -1 0 -17 16 -16 19 -15 50 15 18 18 36 30 40 26 8 -8 -10 -54 -30 -77 -19
-20 -13 -30 10 -21 15 6 33 41 29 57 -1 4 2 7 7 7 4 0 8 13 7 29 -1 16 -4 27
-8 24 -5 -2 -8 3 -8 12 0 9 4 14 9 11 5 -4 7 3 4 15 -3 11 -12 23 -19 26 -8 3
-12 9 -9 13 3 5 1 11 -5 15 -6 4 -8 10 -5 15 3 4 -2 11 -11 14 -10 4 -13 2 -8
-7 4 -6 -11 7 -34 31 -23 23 -45 43 -49 44 -10 1 -22 4 -48 13 -11 3 -22 6
-24 5 -2 -1 -8 4 -12 12 -7 10 -9 10 -9 0 0 -10 -5 -10 -20 -2 -15 8 -20 8
-20 -1 0 -8 -4 -8 -15 1 -13 10 -19 10 -33 -2 -9 -9 -23 -13 -29 -11 -7 3 -16
-2 -19 -10 -4 -10 -15 -14 -35 -12 -20 3 -32 -1 -36 -11 -4 -10 -9 -12 -18 -4
-9 8 -17 6 -28 -5 -10 -10 -18 -12 -22 -5 -5 8 -11 7 -20 0 -8 -7 -19 -9 -25
-5 -5 3 -10 2 -10 -2 0 -5 -24 -8 -54 -8 -30 1 -53 -2 -51 -5 2 -3 -32 -6 -76
-6 -46 -1 -79 3 -79 9 0 6 -3 7 -6 4 -4 -3 -16 0 -27 8 -13 9 -27 11 -42 5
-15 -6 -27 -4 -35 3 -10 10 -12 8 -7 -5 4 -12 1 -18 -8 -18 -8 0 -15 5 -15 10
0 6 -5 10 -11 10 -5 0 -7 -6 -3 -12 6 -9 3 -9 -9 0 -9 8 -22 10 -28 6 -8 -4
-9 -3 -5 4 4 7 1 12 -9 12 -9 0 -13 -4 -10 -10 3 -5 1 -10 -4 -10 -6 0 -11 3
-11 8 0 4 -18 7 -40 6 -21 0 -37 3 -34 7 6 10 -38 5 -55 -6 -10 -5 -12 -4 -7
3 4 7 1 12 -8 12 -8 0 -18 -4 -21 -10 -3 -5 -15 -10 -26 -10 -11 0 -18 -3 -16
-7 3 -5 -5 -8 -18 -8 -13 0 -21 4 -17 9 3 5 -2 7 -10 3 -9 -3 -27 1 -41 8 -19
10 -27 10 -31 2 -3 -9 -5 -9 -5 0 -1 9 -8 10 -27 3 -15 -6 -23 -6 -19 0 3 5
-10 12 -30 16 -19 3 -33 10 -30 14 3 4 -9 6 -25 5 -17 -1 -30 1 -30 6 0 5 -9
9 -21 9 -13 0 -18 4 -13 12 5 8 2 9 -9 5 -10 -4 -17 -2 -17 4 0 6 -9 9 -20 6
-13 -3 -18 -1 -13 6 4 6 -2 8 -16 4 -13 -3 -20 -3 -17 0 10 10 -33 35 -46 27
-6 -4 -8 -3 -5 3 4 7 -9 10 -38 10 -25 -1 -45 -6 -45 -12 0 -6 -3 -6 -8 1 -8
11 -43 28 -54 26 -4 -1 -10 8 -14 20 -8 27 -29 49 -38 41 -3 -4 -6 1 -6 10 0
19 -36 41 -52 31 -7 -4 -8 -3 -4 5 5 7 -4 15 -23 22 -17 6 -31 17 -31 25 0 7
-11 16 -25 20 -14 3 -25 10 -25 16 0 5 -5 6 -11 3 -5 -4 -20 1 -31 12 -14 12
-18 13 -13 3 7 -12 6 -13 -6 -4 -25 19 -59 15 -59 -7z m47 -143 c-3 -22 -1
-37 6 -40 7 -2 2 -5 -9 -5 -23 -1 -40 -26 -24 -36 6 -4 10 1 10 10 0 13 9 15
56 10 31 -4 54 -3 51 2 -3 5 3 9 13 9 12 0 16 -4 11 -11 -21 -26 -21 -66 -1
-87 11 -12 20 -17 20 -12 0 5 16 17 35 26 43 19 44 13 4 -35 -29 -36 -47 -42
-61 -22 -5 6 -8 6 -8 -2 0 -6 5 -15 10 -18 6 -3 10 -11 10 -16 0 -6 -5 -7 -10
-4 -6 4 -9 3 -8 -2 2 -5 -21 -32 -49 -61 -29 -30 -53 -58 -53 -63 0 -6 -11
-25 -24 -42 -46 -61 -63 -140 -45 -207 2 -9 -2 -15 -13 -14 -10 1 -16 -3 -15
-10 1 -6 -7 -11 -18 -12 -41 -2 -46 -4 -39 -16 5 -7 3 -8 -5 -4 -13 8 -71 -11
-71 -24 0 -4 -19 -11 -42 -15 l-43 -7 60 -29 c68 -32 68 -33 -6 -19 -68 13
-110 30 -103 41 3 5 2 9 -3 10 -4 0 -18 2 -31 3 -13 2 -33 14 -45 27 -43 47
-59 50 -123 24 -33 -14 -65 -25 -72 -25 -7 0 -39 -9 -71 -20 -90 -30 -294 -54
-337 -40 -20 7 -47 10 -60 7 -13 -2 -27 0 -30 4 -3 5 -10 9 -15 9 -6 0 -7 -5
-3 -12 5 -8 3 -8 -7 -2 -8 5 -23 9 -34 10 -11 1 -27 4 -35 7 -8 4 -22 6 -30 5
-35 -3 -61 3 -55 12 6 9 -22 15 -52 11 -7 -1 -10 5 -7 13 4 11 0 13 -15 9 -13
-3 -21 -1 -21 6 0 7 -4 10 -9 7 -12 -8 -41 3 -41 15 0 11 54 -1 58 -13 2 -4 8
-5 13 -2 6 3 16 0 24 -6 8 -7 15 -9 15 -5 0 4 7 2 15 -5 8 -6 23 -9 35 -5 12
4 27 1 35 -5 8 -7 15 -10 15 -6 0 3 12 1 26 -4 16 -7 23 -7 19 0 -3 6 -2 10 4
10 5 0 13 -4 16 -10 8 -14 55 -13 55 1 0 8 4 8 13 1 13 -11 46 -10 77 1 8 3
65 10 125 16 124 13 271 47 383 91 41 16 80 26 85 23 6 -4 7 3 3 18 -5 13 -8
32 -9 41 -1 9 -4 15 -8 12 -11 -7 -20 28 -23 93 l-3 58 61 61 c68 68 79 81 89
106 3 10 18 20 32 24 17 4 24 11 21 21 -3 8 -1 11 4 8 6 -3 13 1 16 9 3 9 10
13 15 10 5 -3 9 -1 9 4 0 14 36 52 43 45 4 -3 9 2 13 11 3 9 12 16 20 16 8 0
14 5 14 11 0 17 23 5 26 -14 1 -9 -1 -17 -4 -17 -12 0 -97 -82 -97 -94 -1 -6
-6 -10 -13 -8 -7 1 -12 -5 -12 -14 0 -9 -5 -12 -12 -8 -6 4 -8 3 -4 -4 3 -6
-2 -15 -11 -21 -10 -6 -14 -11 -9 -11 5 0 1 -9 -9 -20 -10 -11 -22 -17 -28
-13 -5 3 -7 2 -4 -4 3 -5 -3 -15 -13 -23 -10 -8 -17 -17 -14 -22 3 -4 -11 -36
-32 -71 -61 -101 -55 -101 11 1 35 53 54 64 50 27 -4 -33 5 -37 30 -13 20 20
20 20 -2 14 -14 -5 -23 -3 -23 3 0 6 10 12 23 12 20 1 20 2 2 6 -11 3 -24 10
-30 15 -7 8 -4 9 9 4 13 -4 17 -2 13 8 -7 17 26 49 38 39 4 -5 5 -2 1 5 -11
18 12 42 32 35 11 -3 13 -2 5 4 -8 6 -6 14 7 30 9 12 21 19 25 15 5 -4 6 -2 2
3 -3 6 10 26 29 44 21 21 34 28 35 20 1 -8 4 -3 8 11 4 14 13 24 20 22 7 -1
10 2 6 8 -6 9 8 15 29 11 5 -1 6 5 3 13 -8 19 12 26 38 13 16 -8 18 -7 8 4
-18 18 -16 29 3 29 13 0 15 -7 11 -34z m206 -172 c-4 -11 -1 -15 13 -12 17 3
19 -4 20 -64 0 -37 -3 -65 -7 -62 -4 2 -6 -4 -5 -13 2 -10 12 -23 24 -29 12
-6 19 -14 14 -19 -4 -4 3 -1 16 6 12 8 22 17 22 22 0 4 4 6 9 2 6 -3 13 11 17
31 4 20 10 31 14 25 3 -7 14 -9 23 -5 13 4 14 10 7 24 -8 15 -5 18 19 22 18 3
27 0 25 -7 -3 -6 5 -11 16 -11 11 0 20 6 20 13 0 16 16 17 26 1 5 -7 3 -8 -6
-3 -7 5 -5 -4 6 -18 10 -15 27 -27 37 -27 11 0 15 -4 11 -12 -5 -8 -2 -9 9 -5
10 3 17 3 17 -2 0 -5 -8 -11 -17 -15 -10 -3 -24 -9 -30 -12 -8 -3 -13 1 -13
10 0 9 -5 16 -11 16 -5 0 -8 -4 -5 -9 8 -12 -10 -24 -76 -50 -114 -46 -173
-34 -224 42 -55 82 -55 82 -20 114 18 15 35 36 39 46 3 9 9 17 11 17 3 0 3 -7
-1 -16z m1732 -12 c3 -7 9 -11 14 -7 6 3 22 3 36 -1 20 -5 23 -9 13 -15 -10
-7 -9 -9 5 -9 9 0 17 -4 17 -8 0 -5 10 -14 23 -20 12 -6 16 -11 10 -11 -7 -1
-13 -8 -13 -17 0 -8 -4 -12 -10 -9 -5 3 -10 1 -10 -4 0 -6 -7 -11 -15 -11 -8
0 -19 -9 -25 -20 -6 -11 -15 -19 -20 -17 -5 1 -16 -7 -25 -18 -9 -11 -14 -14
-10 -8 4 9 1 11 -9 7 -9 -3 -16 -12 -16 -19 0 -8 -8 -11 -20 -8 -12 3 -22 -1
-26 -11 -3 -9 -12 -16 -19 -16 -7 0 -16 -7 -19 -16 -4 -10 -13 -13 -26 -9 -14
4 -27 -2 -46 -22 -16 -17 -34 -27 -46 -25 -16 3 -19 0 -15 -13 4 -9 3 -14 -3
-10 -14 9 -51 -4 -45 -16 4 -5 0 -9 -9 -9 -8 0 -16 -3 -18 -7 -1 -5 -18 -16
-36 -25 -18 -10 -30 -14 -27 -9 3 5 -4 7 -16 4 -12 -3 -18 -11 -15 -19 5 -13
-11 -19 -43 -15 -7 2 -10 -2 -7 -7 4 -6 -3 -8 -16 -4 -13 3 -19 1 -15 -5 5 -7
-1 -9 -15 -5 -17 4 -20 2 -15 -12 5 -13 2 -17 -11 -15 -9 1 -26 1 -37 0 -17
-1 -18 -3 -5 -11 13 -9 13 -10 0 -10 -8 0 -35 -10 -60 -21 -52 -25 -99 -32
-101 -15 -3 25 9 104 17 118 5 7 2 8 -7 3 -12 -8 -12 -6 0 8 16 20 38 22 43 6
2 -7 10 -10 18 -7 9 3 3 10 -18 19 -32 14 -41 32 -22 44 6 4 21 0 33 -8 23
-15 56 -7 90 21 9 8 20 11 26 8 5 -3 7 2 4 13 -3 10 0 22 6 25 6 4 11 1 12 -6
0 -7 4 -4 8 6 9 23 51 33 51 12 0 -8 -6 -16 -12 -19 -7 -3 -3 -4 10 -4 19 1
22 5 17 28 -6 25 -2 30 44 52 44 21 51 22 52 8 0 -12 3 -11 9 4 l9 20 1 -20
c1 -16 4 -14 12 8 7 21 14 26 29 22 12 -4 21 -1 25 9 3 9 19 22 35 30 29 15
38 9 18 -11 -13 -13 -3 -36 12 -27 5 3 7 10 4 15 -4 5 -1 9 4 9 6 0 10 3 10 8
-3 19 2 33 11 27 6 -3 10 -1 10 4 0 6 4 11 10 11 5 0 7 -8 3 -17 -5 -15 -3
-14 10 2 8 11 11 22 6 26 -9 5 70 45 84 41 4 -1 7 3 7 8 0 6 5 10 10 10 6 0
10 -10 10 -22 0 -18 2 -20 9 -9 11 17 -8 53 -23 44 -5 -3 -6 -1 -2 5 9 16 54
11 61 -6z m-1338 -49 c-11 -11 24 -42 40 -36 12 5 14 1 9 -14 -3 -11 1 -27 10
-39 8 -10 13 -12 9 -4 -4 9 0 7 9 -4 8 -10 19 -15 25 -11 6 3 11 1 11 -6 0 -7
8 -5 21 7 14 12 19 26 15 44 -3 14 -3 19 1 11 5 -11 7 -11 14 0 7 11 9 10 9
-3 0 -10 4 -18 10 -18 5 0 7 -7 4 -15 -4 -9 0 -15 9 -15 9 0 19 -5 23 -12 5
-7 3 -8 -6 -3 -9 5 -11 4 -6 -3 4 -7 13 -12 20 -12 7 0 21 -6 31 -14 17 -12
17 -13 -9 -18 -20 -4 -26 -2 -22 8 3 8 1 14 -4 14 -6 0 -10 -6 -10 -12 0 -17
-69 -15 -80 2 -4 7 -13 9 -19 6 -6 -4 -11 0 -11 8 0 9 -4 16 -10 16 -19 0 -25
2 -37 12 -10 8 -13 6 -13 -6 0 -10 9 -16 25 -16 14 0 25 -5 25 -11 0 -6 -8 -8
-17 -5 -10 2 -28 7 -40 11 -13 3 -23 11 -23 16 0 6 -4 7 -10 4 -5 -3 -10 2
-11 12 0 10 -3 13 -6 6 -2 -7 -14 -13 -25 -13 -19 0 -18 2 6 31 29 34 31 42
16 70 -9 15 -7 19 6 19 10 0 14 -3 11 -7z m1016 -30 c4 -3 6 -11 3 -19 -3 -8
-1 -14 5 -14 6 0 7 -5 4 -10 -10 -16 -35 8 -28 26 4 10 0 12 -11 8 -12 -5 -14
-10 -6 -19 5 -6 7 -15 3 -18 -3 -4 0 -7 7 -7 11 0 12 -2 1 -12 -10 -11 -15 -9
-26 6 -13 18 -14 17 -20 -5 -5 -19 -13 -24 -42 -26 -19 -1 -43 -5 -51 -8 -14
-5 -14 -7 -2 -15 17 -11 11 -18 -18 -23 -12 -2 -32 -13 -45 -25 -13 -12 -28
-22 -35 -22 -6 0 -17 -8 -24 -18 -20 -29 -55 -45 -65 -30 -13 22 -12 38 2 38
8 0 16 8 19 18 4 9 16 28 27 42 11 14 17 19 13 11 -4 -9 -3 -12 4 -7 6 4 8 14
5 23 -4 11 -3 14 5 9 8 -5 12 0 12 14 0 12 4 18 11 15 5 -4 8 -12 6 -18 -2 -7
0 -20 4 -29 6 -12 5 -20 -5 -25 -10 -6 -12 -13 -6 -23 7 -12 11 -10 18 10 5
14 8 28 5 33 -2 4 1 7 8 7 10 0 10 3 1 12 -7 7 -12 17 -12 23 0 5 4 4 9 -3 6
-11 9 -9 13 6 5 16 2 20 -14 17 -17 -4 -18 -2 -6 12 11 14 10 15 -11 8 -21 -6
-23 -5 -18 14 4 17 2 20 -7 12 -9 -8 -13 -7 -13 2 0 7 13 13 28 13 16 1 27 -2
26 -6 -1 -4 1 -8 6 -9 20 -3 28 0 23 7 -2 4 14 7 37 6 58 -2 57 -1 57 -30 0
-14 4 -22 10 -19 5 3 7 19 4 35 -6 28 -6 29 37 24 24 -3 47 -8 52 -11z m-1493
-28 c0 -7 7 -16 16 -19 8 -3 12 -11 9 -16 -4 -6 -2 -16 3 -23 11 -14 1 -49
-13 -47 -6 0 -12 -7 -13 -16 -2 -9 -20 -33 -40 -54 -21 -20 -43 -46 -51 -58
-8 -11 -19 -18 -25 -15 -6 3 -8 3 -4 -2 10 -10 -10 -35 -28 -35 -8 0 -14 8
-15 18 0 14 -2 14 -9 -3 -8 -17 -9 -17 -7 7 1 15 4 25 8 23 3 -3 6 14 6 36 0
30 5 44 21 55 12 8 22 22 22 31 0 9 21 36 46 60 26 24 44 46 40 50 -8 9 14 34
25 27 5 -3 9 -11 9 -19z m825 15 c-8 -13 25 -61 37 -54 5 3 20 -2 33 -10 23
-15 25 -15 25 -1 0 9 5 13 10 10 10 -6 14 7 11 34 -2 7 3 10 9 6 6 -4 9 -14 6
-22 -8 -20 14 -39 57 -51 29 -8 35 -7 30 4 -3 8 2 16 10 20 8 3 13 13 10 23
-3 12 2 17 16 17 16 0 18 -3 8 -15 -7 -9 -8 -12 -1 -8 6 3 19 0 30 -7 15 -12
22 -12 40 1 13 8 25 20 27 26 2 7 3 4 2 -5 -2 -11 3 -18 13 -18 15 0 15 -2 2
-10 -8 -5 -24 -7 -35 -5 -11 3 -14 2 -7 -1 6 -3 9 -11 6 -16 -5 -7 -2 -8 7 -3
8 5 1 -7 -16 -27 -17 -22 -45 -41 -66 -48 -27 -7 -38 -17 -41 -35 -3 -14 -2
-25 2 -25 9 0 24 31 22 43 -1 4 5 7 13 7 19 0 19 -5 -2 -36 -9 -14 -18 -36
-19 -47 -1 -12 -5 -31 -7 -42 -3 -11 -6 -26 -6 -33 -1 -10 -5 -10 -21 0 -16
10 -22 10 -32 0 -11 -11 -10 -12 4 -7 26 10 44 -14 40 -52 -4 -33 -17 -44 -25
-20 -2 6 -8 9 -12 5 -4 -4 3 -15 14 -25 12 -9 21 -24 21 -32 0 -8 -3 -12 -6
-8 -4 3 -13 0 -20 -8 -8 -8 -21 -12 -29 -8 -8 3 -26 -2 -40 -11 -14 -9 -28
-17 -32 -17 -5 -1 -17 -6 -28 -12 -11 -5 -38 -11 -60 -12 -22 -1 -35 0 -28 2
7 2 9 11 6 20 -5 12 -1 14 13 9 23 -7 51 28 32 40 -6 4 -8 3 -4 -4 7 -11 -31
-28 -41 -18 -4 3 1 6 10 6 10 0 17 5 17 10 0 6 -6 10 -12 10 -9 0 -8 4 2 10
11 7 11 10 2 10 -7 0 -10 5 -7 10 3 6 15 10 26 10 24 0 26 20 2 21 -12 0 -13
2 -5 6 8 3 10 9 3 16 -5 7 -7 25 -4 40 4 22 9 26 27 22 15 -5 17 -4 7 3 -8 6
-10 15 -5 23 6 11 5 12 -7 2 -14 -11 -15 -7 -9 32 4 24 3 42 -2 39 -4 -3 -8 4
-8 15 0 11 -11 44 -23 73 -13 29 -22 59 -20 66 3 6 -2 12 -10 12 -14 0 -27 20
-27 40 0 9 22 17 53 19 10 0 15 -3 12 -9z m-419 -89 c-5 -7 38 -18 101 -25 12
-1 28 -8 36 -14 8 -7 17 -9 20 -5 4 3 13 0 21 -6 16 -14 109 -23 101 -11 -6
10 15 8 32 -3 6 -4 14 -4 17 1 4 6 27 7 68 3 4 -1 5 -8 2 -16 -4 -8 -1 -15 6
-15 7 0 10 -8 7 -20 -3 -11 0 -20 6 -21 7 0 6 -3 -2 -6 -11 -5 -11 -7 0 -14
10 -6 11 -9 2 -9 -7 0 -13 -7 -13 -15 0 -8 4 -15 8 -15 5 0 9 -7 9 -15 0 -8
-4 -12 -8 -9 -4 2 -8 -4 -8 -13 -1 -46 -8 -83 -18 -95 -6 -7 -9 -23 -8 -35 1
-13 -2 -23 -6 -23 -4 0 -6 -16 -4 -35 2 -24 0 -33 -8 -28 -8 4 -7 1 1 -9 11
-13 9 -17 -13 -22 -14 -4 -30 -4 -34 -1 -5 3 -21 -1 -36 -9 -15 -8 -34 -12
-43 -9 -9 4 -13 2 -9 -4 4 -6 0 -13 -8 -17 -8 -3 -15 0 -15 7 0 8 -3 8 -9 -2
-5 -7 -13 -11 -19 -7 -5 3 -15 -1 -22 -10 -7 -8 -19 -13 -27 -10 -8 3 -16 -1
-19 -9 -3 -7 -11 -12 -18 -9 -15 6 -68 -13 -77 -27 -3 -6 -15 -11 -27 -12 -11
0 -18 -5 -16 -9 3 -4 -2 -8 -10 -8 -9 0 -16 -4 -16 -10 0 -5 -11 -10 -25 -10
-14 0 -25 -5 -25 -10 0 -13 -48 -33 -77 -32 -13 1 -23 -5 -26 -16 -3 -12 -5
-10 -6 7 -1 15 -6 21 -15 18 -8 -3 -13 1 -12 11 0 9 -9 21 -21 27 -13 5 -23
17 -23 25 0 8 -12 26 -27 40 -15 14 -23 18 -18 10 5 -10 1 -8 -13 4 -12 10
-20 21 -19 25 1 3 -1 6 -4 6 -14 0 -38 28 -32 38 3 5 1 7 -5 3 -6 -3 -13 -2
-17 4 -4 6 12 10 42 10 35 0 44 -3 33 -10 -9 -6 -10 -10 -3 -10 6 0 15 -9 18
-20 6 -17 8 -18 21 -6 19 19 18 30 -2 22 -9 -4 -14 -1 -12 5 2 7 23 13 47 15
24 2 49 8 56 14 7 6 28 8 48 5 19 -3 38 -1 41 4 4 6 13 8 21 4 8 -3 23 -2 32
2 10 5 25 7 35 6 9 -1 19 2 22 8 3 5 16 7 28 3 15 -3 19 -2 14 7 -6 8 -1 10
17 6 14 -4 28 -2 32 4 3 6 10 9 15 6 4 -3 10 1 13 9 4 9 14 12 26 9 15 -4 21
-1 21 11 0 20 -4 20 -39 1 -38 -19 -147 -43 -256 -55 -110 -12 -118 -12 -111
-2 3 5 -1 9 -9 9 -8 0 -15 -5 -15 -10 0 -5 -9 -7 -20 -4 -11 3 -20 2 -20 -3 0
-4 -11 -10 -25 -12 -13 -3 -22 -1 -19 3 3 5 0 9 -5 9 -6 0 -11 -5 -11 -11 0
-6 -24 -10 -57 -11 -32 0 -109 -2 -170 -5 -68 -2 -113 0 -113 5 0 5 -9 12 -20
15 -13 3 -18 1 -13 -6 4 -7 0 -8 -13 -2 -10 4 -36 7 -56 6 -21 -1 -38 3 -38 9
0 5 24 11 55 11 30 1 61 2 68 3 6 1 18 -3 26 -8 11 -8 13 -8 7 2 -5 8 0 12 14
12 14 0 19 -4 15 -12 -4 -7 -1 -6 7 2 7 8 24 16 38 18 20 2 22 1 10 -7 -8 -6
-10 -11 -4 -11 5 0 19 7 30 15 24 18 54 19 54 3 0 -8 5 -6 10 3 7 12 32 19 82
25 101 11 101 11 117 -1 11 -7 13 -7 7 3 -10 17 23 28 45 14 25 -16 30 -15 22
3 -3 9 -2 15 3 14 5 -1 17 1 27 6 9 4 26 5 37 2 11 -3 20 0 21 6 0 8 2 8 6 0
2 -7 11 -13 19 -13 8 0 11 6 7 17 -5 13 -2 15 16 10 13 -3 20 -3 17 0 -3 3 16
16 43 28 86 40 101 89 52 167 -28 45 -30 58 -7 58 6 0 4 -5 -4 -10 -8 -5 -12
-10 -7 -10 4 0 16 5 26 12 15 9 29 9 60 -1 23 -6 41 -16 41 -22 0 -6 5 -7 11
-3 7 4 10 1 7 -7 -7 -21 14 -38 34 -28 22 12 56 -17 67 -57 9 -32 -1 -54 -24
-54 -7 0 -12 -7 -12 -15 0 -11 4 -12 14 -3 28 23 22 -1 -11 -45 -40 -52 -30
-78 11 -31 38 44 50 75 48 124 -3 60 -3 62 -14 55 -5 -3 -11 5 -13 17 -3 23
-76 70 -92 60 -5 -3 -6 0 -2 6 4 7 2 13 -3 13 -21 3 -26 4 -40 13 -11 7 -12 6
-6 -5 8 -12 6 -12 -8 -1 -9 8 -21 11 -27 7 -5 -3 -10 -2 -10 3 0 5 -21 8 -47
7 -27 -1 -53 2 -58 6 -22 16 -10 -40 12 -59 13 -10 20 -22 16 -26 -3 -3 -1 -6
5 -6 7 0 12 -7 12 -15 0 -9 6 -18 14 -21 18 -7 13 -64 -8 -79 -9 -7 -13 -15
-10 -18 10 -10 -68 -38 -89 -31 -12 4 -23 1 -28 -7 -5 -8 -19 -14 -31 -15 -75
-3 -79 -4 -72 -16 6 -10 4 -10 -8 0 -13 10 -19 10 -31 -3 -10 -10 -18 -12 -22
-5 -5 8 -11 8 -20 0 -7 -6 -21 -7 -30 -3 -13 5 -16 3 -10 -6 5 -10 2 -11 -14
-6 -12 3 -21 2 -21 -4 0 -5 -18 -8 -42 -5 -27 2 -45 -1 -50 -9 -6 -9 -10 -9
-17 2 -6 9 -11 10 -15 3 -4 -6 -14 -8 -23 -5 -12 5 -14 3 -8 -8 7 -11 5 -11
-10 1 -11 9 -16 10 -11 3 4 -8 1 -13 -9 -13 -10 0 -13 5 -9 13 6 9 3 8 -8 -1
-13 -11 -21 -11 -39 -2 -14 8 -19 8 -15 1 5 -7 -4 -10 -26 -7 -57 7 -88 18
-82 27 8 13 44 11 44 -2 0 -6 16 -2 36 10 19 12 32 15 28 9 -7 -12 19 7 54 40
7 7 18 10 23 7 5 -4 9 1 9 9 0 9 4 16 9 16 6 0 31 19 57 43 26 23 52 40 58 39
6 -2 8 0 4 3 -14 14 11 43 32 38 12 -3 20 0 20 6 0 7 -5 9 -12 5 -7 -4 -8 -3
-4 5 4 6 12 8 18 5 8 -5 9 -1 5 10 -4 9 -3 15 2 12 10 -7 33 18 29 30 -3 9 5
14 23 14 8 0 8 -5 -1 -15 -9 -11 -9 -15 -1 -15 7 0 9 -5 5 -12 -5 -9 -2 -8 10
1 9 8 13 17 9 20 -5 3 -8 12 -7 19 1 6 2 18 3 25 1 8 6 6 15 -5 7 -10 16 -15
19 -11 4 3 7 2 7 -4 0 -16 96 -6 125 13 14 9 31 14 38 11 7 -3 21 1 30 8 9 7
30 11 47 9 16 -2 32 1 35 6 3 6 8 10 11 10 3 0 3 -4 0 -9z m-1039 -38 c0 -14
-67 -41 -181 -74 -86 -25 -297 -37 -372 -21 -53 12 -168 52 -162 57 2 2 32 -3
68 -11 149 -33 390 -15 550 40 74 25 97 28 97 9z m2520 -35 c-7 -10 -17 -18
-24 -18 -7 0 -13 -7 -13 -15 0 -8 -4 -14 -9 -12 -5 1 -20 -10 -34 -25 -16 -17
-32 -25 -41 -22 -11 4 -16 0 -16 -11 0 -9 -4 -14 -9 -11 -5 3 -11 -1 -15 -9
-3 -8 -12 -12 -21 -9 -9 4 -15 0 -15 -10 0 -10 -6 -13 -15 -9 -10 3 -15 0 -13
-8 2 -9 -4 -13 -15 -11 -10 2 -16 -3 -15 -10 2 -8 -4 -12 -15 -10 -10 2 -16
-3 -15 -10 2 -7 -4 -13 -12 -14 -26 -2 -70 -23 -70 -34 0 -5 -7 -10 -15 -10
-8 0 -15 -4 -15 -9 0 -5 -9 -7 -19 -4 -13 3 -23 -2 -31 -17 -8 -14 -18 -20
-30 -17 -10 3 -27 -1 -38 -9 -11 -7 -22 -10 -26 -6 -4 3 -4 -1 -1 -10 5 -13 1
-17 -24 -16 -18 1 -37 -5 -44 -13 -18 -22 -52 -47 -43 -31 8 14 5 15 -18 6 -9
-3 -16 -12 -16 -20 0 -8 -3 -14 -7 -15 -5 0 -21 -2 -36 -3 -17 -1 -37 -12 -48
-26 -13 -17 -19 -20 -19 -10 -1 13 -2 13 -13 0 -18 -22 -53 -40 -77 -40 -14 0
-19 -4 -14 -12 4 -7 3 -8 -5 -4 -16 10 -111 -25 -121 -45 -10 -18 -95 -53
-108 -45 -5 3 -20 -4 -33 -15 -13 -11 -31 -18 -41 -16 -9 3 -19 -1 -22 -8 -3
-8 -13 -11 -24 -8 -11 3 -31 -6 -51 -23 -18 -15 -45 -28 -59 -29 -58 -4 -59
-4 -42 -15 9 -6 10 -10 3 -10 -6 0 -24 -5 -40 -12 -15 -6 -32 -10 -38 -9 -5 1
-15 -5 -22 -15 -7 -10 -19 -14 -29 -10 -12 4 -15 2 -10 -9 3 -10 -1 -16 -12
-16 -9 -1 -24 -3 -32 -4 -8 -1 -21 -3 -28 -4 -7 0 -11 -5 -8 -10 4 -5 -3 -7
-13 -4 -13 3 -23 -2 -31 -16 -6 -12 -16 -19 -21 -15 -6 3 -18 -1 -27 -9 -23
-20 -201 -88 -227 -86 -35 2 -46 -1 -40 -11 3 -6 -1 -7 -10 -4 -9 4 -29 -2
-44 -14 -22 -16 -31 -18 -41 -9 -10 9 -11 9 -6 0 4 -8 -1 -11 -14 -10 -11 1
-20 6 -20 12 0 5 -5 3 -10 -5 -10 -16 -10 -17 -14 26 -1 6 -7 19 -15 28 -12
14 -10 20 12 42 14 14 31 23 37 19 5 -3 10 1 10 9 0 12 -11 16 -37 17 -21 1
-42 1 -46 0 -5 -1 -7 3 -5 9 2 7 6 10 9 8 3 -2 13 3 22 11 11 8 17 9 17 3 0
-7 7 -9 17 -5 11 4 14 3 9 -5 -4 -7 -2 -12 5 -12 7 0 9 8 6 21 -5 17 -2 20 13
16 10 -3 28 1 39 9 10 8 26 11 35 8 9 -3 16 -1 16 5 0 7 13 9 38 5 35 -5 36
-5 17 10 -16 13 -17 15 -2 10 9 -3 17 -2 17 4 0 8 140 66 180 74 8 2 18 8 22
13 5 7 14 6 27 -2 17 -11 19 -10 15 1 -7 18 31 40 53 32 12 -5 13 -9 3 -21 -7
-9 -15 -13 -18 -10 -3 3 -14 -3 -25 -12 -11 -10 -35 -18 -56 -18 -24 0 -35 -4
-33 -13 1 -7 -9 -16 -22 -21 -24 -10 -41 -47 -25 -57 5 -3 9 2 9 12 0 12 6 15
24 12 16 -3 23 -1 19 7 -5 13 42 29 57 20 5 -3 14 4 21 16 9 17 13 19 20 8 6
-10 9 -11 9 -1 0 6 9 12 20 12 11 0 20 7 20 15 0 15 10 19 43 16 26 -3 21 24
-7 37 -19 8 -26 8 -29 -1 -3 -8 -7 -5 -12 6 -10 24 -3 29 46 30 31 1 43 5 46
18 8 29 31 31 25 3 -2 -13 -10 -24 -17 -24 -20 0 -43 -32 -27 -37 6 -3 10 -10
6 -16 -3 -7 1 -4 10 7 8 10 19 15 24 12 5 -3 20 4 34 17 13 12 36 28 51 35 16
6 26 16 23 20 -3 4 12 9 32 11 20 1 46 3 57 4 10 1 27 9 37 19 15 15 22 16 39
7 15 -8 19 -8 15 0 -4 6 -2 11 3 11 6 0 11 -6 12 -12 0 -10 2 -10 6 0 2 6 9
10 14 6 5 -3 8 0 7 6 -2 7 5 14 15 15 10 2 26 10 35 19 13 11 22 12 35 4 13
-7 24 -6 40 4 12 8 29 14 37 13 8 0 21 6 28 15 8 8 11 10 8 4 -3 -7 0 -14 8
-17 8 -3 18 5 25 19 14 32 14 31 -8 37 -12 3 -22 -1 -26 -11 -5 -13 -8 -12
-19 4 -17 22 -1 38 23 24 9 -5 23 -4 34 2 15 8 18 6 15 -9 -2 -14 3 -18 24
-18 14 1 24 -3 21 -8 -3 -5 3 -7 13 -5 11 2 20 13 22 27 3 20 1 23 -15 16 -44
-18 -52 -17 -50 3 0 11 5 18 9 16 13 -8 49 6 43 17 -4 5 -3 9 0 9 3 0 13 -16
21 -35 8 -19 19 -35 25 -35 5 0 7 5 3 12 -4 7 -3 8 5 4 16 -10 53 3 45 16 -5
7 0 9 14 6 15 -4 19 -2 15 8 -3 9 1 14 13 12 39 -3 52 2 49 20 -1 9 -10 16
-19 16 -8 -1 -13 3 -9 9 4 6 -4 8 -21 5 -14 -3 -26 -1 -26 3 0 5 9 9 20 9 11
0 20 5 20 11 0 6 7 8 16 5 9 -4 22 0 28 8 18 23 60 30 76 11 11 -13 10 -19 -6
-38 -19 -21 -19 -21 1 -7 11 8 26 21 34 28 8 8 22 11 33 9 10 -3 15 -1 12 5
-3 5 2 9 12 8 33 -4 45 0 39 10 -6 9 8 14 28 11 4 0 7 3 7 9 0 5 8 11 18 11
16 1 16 2 0 6 -10 2 -18 9 -18 13 0 6 10 6 24 0 13 -5 26 -6 29 -4 3 3 13 7
24 8 25 4 23 31 -2 31 -11 0 -23 5 -28 10 -4 6 -12 3 -21 -7 -14 -20 -36 -24
-36 -8 0 6 7 10 15 10 8 0 15 5 15 10 0 7 15 9 38 5 27 -4 32 -3 17 4 -16 8
-16 10 -4 10 9 1 24 11 33 24 9 12 14 16 10 8 -5 -10 -1 -11 17 -6 22 6 21 4
-6 -18 -32 -27 -31 -35 3 -42 16 -3 19 0 15 12 -5 13 -1 15 21 9 29 -7 60 9
50 25 -3 5 3 9 12 9 10 0 15 3 11 6 -13 14 24 35 53 30 16 -2 31 0 31 5 1 5 2
15 3 22 1 6 12 11 24 10 12 -2 22 2 22 7 0 6 9 10 20 10 11 0 19 3 19 8 -1 4
-1 14 0 22 1 13 3 13 10 1 6 -9 5 -21 -2 -33z m-2536 -306 c-135 -54 -420
-110 -499 -96 -26 4 -69 8 -97 9 -27 1 -58 6 -68 11 -13 8 0 10 50 10 156 1
378 36 522 83 79 26 87 27 104 12 18 -15 17 -16 -12 -29z m109 -37 l25 -13
-47 -21 c-130 -56 -308 -98 -458 -109 -109 -8 -143 -5 -137 11 2 7 48 17 108
24 136 16 264 46 369 87 98 39 106 40 140 21z m145 -55 c-21 -5 -24 -8 -10 -9
18 -2 18 -3 -5 -16 -33 -19 -38 -18 -43 3 -4 13 -5 12 -6 -5 -1 -17 -16 -27
-82 -53 -92 -35 -242 -76 -309 -84 -102 -12 -157 -14 -200 -7 -44 7 -42 7 35
14 130 11 349 71 490 133 51 22 92 32 130 32 l30 0 -30 -8z m373 -27 c23 -13
42 -28 42 -33 0 -4 18 -25 40 -46 22 -21 40 -44 40 -51 0 -7 4 -13 9 -13 5 0
13 -14 16 -31 5 -23 9 -28 16 -18 7 12 11 11 26 -5 10 -10 13 -16 7 -12 -7 3
-15 -1 -18 -10 -3 -8 -14 -14 -23 -13 -10 2 -28 -3 -41 -10 -13 -7 -30 -10
-37 -7 -7 2 -16 -2 -19 -11 -4 -9 -14 -13 -26 -10 -10 3 -20 1 -22 -5 -2 -5
-13 -10 -26 -11 -12 0 -22 -5 -22 -10 0 -4 -4 -6 -10 -2 -10 6 -50 -13 -62
-30 -5 -7 -8 -7 -8 0 0 6 -3 5 -8 -1 -10 -16 -52 -28 -52 -14 0 12 -39 -5 -53
-24 -6 -8 -10 -7 -14 2 -4 10 -8 10 -21 0 -12 -10 -14 -10 -8 0 4 7 2 12 -4
12 -6 0 -9 4 -6 9 8 13 -4 42 -15 35 -13 -7 -31 45 -24 67 4 11 2 19 -4 19 -6
0 -7 7 -4 17 5 12 3 14 -7 8 -10 -6 -12 -3 -8 13 4 13 0 23 -9 26 -8 3 -13 14
-11 23 2 10 -3 23 -12 30 -12 10 -12 12 -1 13 12 0 12 3 -1 18 -15 17 -35 62
-22 49 4 -4 12 0 18 9 6 8 18 16 26 17 8 2 20 5 25 9 6 3 41 6 78 6 37 0 71 3
75 6 3 4 36 6 72 5 48 -1 76 -8 108 -26z"/>
<path d="M2141 2745 c-1 -11 -11 -31 -22 -45 -11 -14 -17 -18 -13 -10 7 13 5
13 -8 2 -8 -7 -24 -9 -33 -5 -14 5 -16 3 -10 -7 5 -9 4 -11 -4 -6 -14 9 -43
-12 -35 -25 3 -5 1 -9 -5 -9 -5 0 -11 5 -13 10 -2 6 -11 4 -23 -5 -11 -9 -13
-14 -5 -10 8 4 4 -3 -10 -14 -14 -11 -32 -21 -40 -21 -14 0 -18 -12 -21 -62 0
-10 -4 -18 -9 -18 -5 0 -7 -7 -3 -15 3 -10 0 -15 -8 -13 -15 3 -14 -35 2 -40
5 -2 1 -15 -8 -28 -15 -23 -15 -26 0 -42 13 -12 17 -13 17 -2 0 7 3 10 6 7 4
-3 15 -2 25 4 13 6 19 6 19 0 0 -6 7 -8 15 -5 8 4 12 10 9 16 -4 5 4 8 17 6
16 -2 23 2 21 10 -1 7 3 12 10 11 21 -5 59 12 52 22 -3 6 6 21 21 35 22 20 30
23 36 12 5 -7 9 -8 9 -2 0 5 -6 16 -12 23 -11 11 -10 12 1 6 11 -6 13 -4 8 8
-3 10 -2 17 3 17 6 0 10 8 10 18 0 10 5 23 10 28 6 6 12 32 14 59 3 30 10 53
21 61 9 7 12 15 6 18 -5 4 -12 2 -16 -4 -3 -5 -16 -15 -28 -22 -20 -10 -21
-10 -9 5 8 9 12 24 9 34 -4 16 -5 16 -6 -2z m-7 -120 c-7 -24 -33 -47 -45 -39
-5 3 -9 3 -9 0 0 -2 -3 -13 -7 -23 -7 -17 -6 -17 12 1 27 27 31 3 6 -37 -28
-46 -57 -71 -72 -61 -7 4 -10 3 -6 -3 3 -5 -9 -17 -28 -26 -31 -15 -34 -15
-38 1 -3 12 -5 9 -6 -7 -1 -21 -3 -22 -18 -10 -11 10 -14 10 -9 2 4 -7 3 -13
-3 -13 -5 0 -18 -3 -28 -7 -14 -5 -13 -1 6 20 14 15 26 25 29 22 5 -5 32 20
32 30 0 3 -5 3 -12 -1 -7 -5 -8 -3 -4 5 5 7 11 10 14 7 7 -7 42 23 42 36 0 5
-4 6 -10 3 -5 -3 -10 -2 -10 4 0 13 50 52 60 46 11 -7 20 22 14 43 -4 10 -2
13 3 7 10 -13 73 -15 73 -2 0 5 -7 7 -15 3 -9 -3 -15 0 -15 8 0 8 10 13 25 12
20 -1 24 -5 19 -21z"/>
</g>
</svg>
