<?xml version="1.0" standalone="no"?>
<!DOCTYPE svg PUBLIC "-//W3C//DTD SVG 20010904//EN"
 "http://www.w3.org/TR/2001/REC-SVG-20010904/DTD/svg10.dtd">
<svg version="1.0" xmlns="http://www.w3.org/2000/svg"
 width="2400.000000pt" height="2400.000000pt" viewBox="0 0 2400.000000 2400.000000"
 preserveAspectRatio="xMidYMid meet">
<metadata>
Created by potrace 1.16, written by Peter Selinger 2001-2019
</metadata>
<g transform="translate(0.000000,2400.000000) scale(0.100000,-0.100000)"
fill="#000000" stroke="none">
<path d="M19169 18076 c-98 -26 -172 -88 -213 -176 -31 -68 -29 -207 4 -275
65 -134 213 -204 369 -176 166 31 271 153 271 316 0 222 -207 372 -431 311z
m158 -98 c60 -15 137 -87 152 -143 21 -79 9 -150 -36 -203 l-28 -33 -41 68
-40 68 30 15 c37 18 54 71 40 122 -15 51 -58 68 -176 68 l-98 0 0 -175 0 -175
45 0 45 0 0 78 1 77 42 -77 42 -78 50 0 50 -1 -40 -21 c-86 -46 -209 -20 -273
57 -75 92 -68 210 18 296 63 63 127 80 217 57z"/>
<path d="M5852 18018 c-510 -1359 -2352 -6272 -2352 -6275 0 -1 339 -3 753 -3
l752 0 510 1368 c353 947 511 1358 513 1337 1 -16 -36 -616 -83 -1333 -47
-716 -85 -1318 -85 -1337 l0 -35 808 2 807 3 1182 3150 c650 1733 1182 3156
1183 3163 0 9 -156 12 -749 12 l-749 0 -24 -62 c-13 -35 -249 -660 -523 -1391
-274 -730 -499 -1326 -501 -1324 -2 2 37 626 86 1388 50 761 90 1385 90 1387
0 1 -360 2 -799 2 l-800 0 -19 -52z"/>
<path d="M10026 18062 c-8 -13 -2366 -6305 -2366 -6314 0 -4 338 -7 751 -6
l751 3 1178 3142 c648 1727 1181 3151 1185 3162 l6 21 -750 0 c-412 0 -752 -3
-755 -8z"/>
<path d="M11767 18063 c-9 -15 -2347 -6304 -2347 -6313 0 -6 279 -10 749 -10
l749 0 34 88 c19 48 241 633 494 1299 252 667 461 1213 464 1213 3 0 18 -494
33 -1097 16 -604 31 -1190 34 -1302 l6 -203 1056 6 c581 3 1052 4 1046 1 -5
-2 -577 -158 -1270 -345 -1210 -328 -4046 -1096 -5775 -1565 -915 -248 -1018
-275 -1170 -304 -266 -51 -564 -71 -850 -60 -564 24 -1091 199 -1485 494 -95
71 -275 244 -350 335 -87 107 -163 227 -234 371 -311 625 -305 1422 17 2369
85 251 220 577 329 794 24 48 42 90 40 93 -7 6 -203 -227 -456 -542 -1531
-1911 -2396 -3567 -2521 -4825 -14 -138 -14 -474 0 -586 66 -539 289 -960 684
-1291 514 -432 1070 -672 1751 -755 168 -20 720 -17 903 5 762 94 1464 307
2732 830 935 386 5306 2268 11955 5150 4132 1790 5135 2226 5184 2250 76 38
106 103 59 128 -42 22 -146 0 -678 -145 -1287 -351 -6105 -1654 -6107 -1652
-1 1 36 108 82 237 47 128 85 237 85 242 0 4 -391 7 -869 7 l-868 0 258 693
c143 380 271 722 285 760 l26 67 717 0 717 0 219 583 c120 320 220 588 222
595 4 9 -142 12 -712 12 -569 0 -716 3 -713 13 3 6 112 303 244 659 l239 648
757 0 756 0 10 28 c9 24 371 972 387 1015 7 16 -106 17 -2278 17 l-2285 0
-763 -925 c-420 -508 -764 -923 -766 -922 -1 2 155 416 347 921 193 505 350
920 350 922 0 7 -1519 4 -1523 -3z m3830 -195 c-7 -18 -487 -1300 -1067 -2850
-930 -2484 -1055 -2811 -1058 -2770 -3 57 -92 3123 -92 3175 0 34 62 104 1112
1257 611 671 1113 1220 1115 1220 2 0 -3 -15 -10 -32z"/>
<path d="M4172 10630 c-158 -33 -262 -175 -250 -341 9 -125 71 -214 188 -268
46 -22 69 -26 145 -26 76 0 99 4 145 26 117 54 179 143 188 268 13 189 -113
333 -303 345 -38 3 -89 1 -113 -4z m189 -121 c121 -61 155 -227 70 -330 l-27
-32 -41 69 -41 69 29 12 c71 30 62 156 -12 182 -18 6 -75 11 -128 11 -94 1
-96 1 -66 17 67 37 147 37 216 2z m-251 -196 l-1 -168 -29 32 c-46 51 -62 134
-39 204 11 32 55 99 65 99 2 0 4 -75 4 -167z m146 -103 l38 -70 51 0 50 -1
-40 -22 c-53 -28 -144 -29 -200 -2 l-40 20 48 3 47 3 0 70 c0 38 2 69 4 69 3
0 22 -31 42 -70z"/>
</g>
</svg>
