<?xml version="1.0" standalone="no"?>
<!DOCTYPE svg PUBLIC "-//W3C//DTD SVG 20010904//EN"
 "http://www.w3.org/TR/2001/REC-SVG-20010904/DTD/svg10.dtd">
<svg version="1.0" xmlns="http://www.w3.org/2000/svg"
 width="500.000000pt" height="500.000000pt" viewBox="0 0 500.000000 500.000000"
 preserveAspectRatio="xMidYMid meet">
<metadata>
Created by potrace 1.16, written by Peter Selinger 2001-2019
</metadata>
<g transform="translate(0.000000,500.000000) scale(0.100000,-0.100000)"
fill="#000000" stroke="none">
<path d="M2132 3003 c-6 -3 -10 -9 -6 -14 4 -8 -17 -14 -38 -10 -5 0 -8 -4 -8
-10 0 -5 -5 -7 -12 -3 -6 4 -8 3 -5 -3 4 -6 0 -16 -8 -23 -8 -7 -15 -9 -15 -5
0 5 -16 -13 -36 -38 -35 -44 -54 -62 -38 -34 4 6 -2 4 -14 -7 -12 -10 -19 -23
-16 -28 3 -4 0 -7 -7 -6 -7 2 -13 -3 -14 -11 0 -8 -9 -19 -20 -25 -10 -6 -25
-17 -33 -23 -7 -7 -18 -13 -23 -13 -5 0 -14 -12 -19 -26 -6 -15 -14 -22 -22
-18 -6 4 -8 3 -4 -4 3 -6 2 -13 -4 -17 -5 -3 -10 -11 -10 -17 0 -6 12 -1 27
13 29 26 23 9 -11 -31 -12 -13 18 14 66 60 48 47 106 94 128 106 22 11 38 23
35 26 -10 10 21 16 36 7 9 -5 10 -9 2 -9 -6 0 -15 -9 -18 -20 -4 -11 -10 -18
-15 -15 -5 3 -12 0 -16 -6 -4 -8 -3 -9 4 -5 7 4 12 2 12 -3 0 -6 -3 -11 -7
-11 -5 0 -17 -13 -28 -28 l-19 -26 32 22 c34 25 55 22 45 -5 -4 -11 -3 -14 5
-9 7 4 12 14 12 22 0 8 5 12 10 9 6 -3 10 -1 10 5 0 7 -8 9 -20 5 -11 -4 -20
-2 -20 4 0 6 3 10 8 10 21 -4 31 3 26 16 -4 9 0 15 9 15 9 0 22 3 30 6 9 3 17
-1 20 -10 4 -13 5 -12 3 1 -1 10 -9 17 -19 17 -9 -1 -14 3 -11 8 4 5 16 7 28
4 19 -5 20 -4 3 8 -15 12 -16 14 -2 20 8 3 15 1 15 -4 0 -6 8 -10 18 -10 14 0
15 2 2 10 -8 5 -10 10 -4 10 6 0 18 -8 25 -17 8 -10 9 -14 2 -10 -14 9 -25 -7
-29 -43 -3 -24 0 -27 18 -22 13 3 19 1 15 -5 -3 -5 0 -10 8 -10 8 0 15 4 15 9
0 5 11 6 25 2 14 -3 25 -2 25 3 0 5 7 10 16 10 15 0 15 -1 0 -12 -8 -7 -12
-16 -8 -20 4 -5 2 -5 -4 -2 -16 9 -27 -22 -14 -38 5 -6 7 -15 3 -18 -13 -14
53 -6 74 8 26 19 41 2 15 -17 -10 -7 -31 -30 -46 -50 -16 -21 -32 -35 -37 -32
-5 3 -8 1 -7 -5 2 -5 -16 -27 -39 -49 -24 -22 -43 -44 -43 -49 0 -5 -16 -33
-35 -63 -19 -30 -35 -59 -35 -65 1 -5 10 7 21 27 10 21 30 45 43 53 13 9 26
25 29 36 3 12 10 18 15 15 13 -8 46 30 37 43 -3 6 1 11 9 11 9 0 15 -3 15 -7
-3 -21 2 -33 16 -33 9 0 12 -6 8 -17 -4 -10 -2 -14 5 -9 23 14 22 -14 -2 -35
-15 -13 -22 -27 -19 -37 4 -10 2 -13 -5 -8 -7 4 -12 2 -12 -6 0 -7 -9 -19 -20
-26 -11 -7 -20 -19 -20 -28 0 -9 -5 -12 -12 -8 -7 5 -8 3 -3 -5 5 -8 -10 -32
-41 -64 l-49 -52 50 45 c91 83 90 82 91 54 1 -13 -1 -24 -5 -24 -4 0 -7 -9 -7
-20 0 -11 1 -20 2 -20 1 0 11 18 22 40 10 22 15 37 11 34 -5 -3 -9 2 -9 11 0
12 6 15 23 10 12 -3 17 -3 12 2 -6 4 -11 19 -12 33 -1 14 1 19 4 13 3 -7 12
-13 21 -13 20 0 46 36 36 51 -3 6 3 5 15 -3 12 -7 21 -16 21 -20 0 -4 12 -5
26 -2 19 3 24 1 18 -8 -6 -11 -5 -11 8 0 8 7 23 10 32 6 9 -3 16 -1 16 6 0 6
4 8 10 5 5 -3 27 3 50 14 41 20 62 12 40 -14 -14 -17 -5 -35 16 -35 8 0 12 -4
9 -10 -3 -5 -1 -10 5 -10 6 0 8 -5 5 -10 -4 -6 -1 -9 7 -8 8 2 12 -5 10 -18
-2 -12 4 -24 12 -27 10 -4 13 -15 9 -39 -5 -34 -20 -51 -37 -41 -5 3 -6 1 -2
-5 8 -14 -30 -36 -49 -28 -8 3 -17 1 -20 -4 -3 -5 -12 -7 -20 -3 -8 3 -15 0
-15 -7 0 -8 -9 -10 -26 -6 -17 5 -23 3 -19 -4 5 -8 -6 -11 -32 -9 -55 3 -65 0
-57 -12 5 -8 -1 -10 -20 -7 -14 3 -26 1 -26 -5 0 -5 -6 -4 -14 2 -11 10 -16 9
-23 -2 -4 -8 -17 -17 -28 -20 -16 -4 -14 -5 7 -6 15 0 29 -5 33 -11 3 -5 12
-7 20 -4 8 4 13 10 10 14 -3 4 9 10 25 12 21 3 27 1 20 -7 -6 -7 -2 -11 11
-12 16 -1 19 2 14 15 -3 9 -3 13 1 9 4 -4 14 -1 22 6 13 10 14 9 7 -3 -5 -10
-1 -9 13 3 13 12 26 16 34 11 18 -11 39 -14 33 -4 -3 4 1 12 8 17 21 16 87 34
97 28 6 -4 9 -1 8 7 -2 7 3 12 10 10 8 -1 11 2 8 7 -4 5 -2 12 4 16 13 8 40
72 40 96 0 10 -5 21 -11 25 -9 5 -10 -2 -5 -22 5 -25 3 -24 -14 10 -10 21 -25
44 -31 52 -15 19 -6 27 29 26 31 -1 102 -27 102 -37 0 -3 -4 -3 -10 0 -6 3 -7
-1 -4 -9 3 -9 9 -15 12 -14 4 0 9 -1 12 -2 10 -4 45 -11 58 -12 15 -1 36 -31
47 -66 5 -17 1 -24 -17 -31 -13 -6 -18 -10 -13 -11 6 0 3 -5 -5 -11 -12 -9
-11 -10 7 -6 20 4 21 2 12 -14 -5 -10 -12 -19 -15 -19 -3 0 -2 5 2 12 4 7 3 8
-5 4 -6 -4 -9 -12 -5 -17 9 -15 -26 -50 -71 -70 -35 -15 -121 -36 -217 -52
-16 -2 -28 -1 -28 4 0 4 12 10 28 12 25 4 24 4 -6 6 -19 0 -35 -4 -38 -12 -7
-19 -36 -17 -52 2 -11 15 -12 15 -7 0 4 -9 0 -16 -7 -16 -7 0 -22 -4 -33 -8
-16 -5 -17 -5 -5 4 13 9 13 11 -2 11 -10 0 -18 -4 -18 -10 0 -5 -7 -10 -15
-10 -8 0 -15 5 -15 11 0 5 6 7 13 3 6 -4 8 -3 4 1 -14 16 -34 13 -33 -3 1 -16
-3 -18 -46 -21 -28 -1 -19 -10 15 -13 14 -1 25 -5 25 -8 -3 -30 26 -49 36 -23
5 11 2 14 -10 9 -10 -4 -14 -2 -11 6 2 8 17 12 37 10 25 -3 30 0 24 10 -6 10
-5 11 7 1 12 -10 18 -10 29 0 10 10 11 9 5 -2 -6 -10 -4 -12 6 -5 8 5 22 7 33
5 13 -2 16 1 10 11 -6 10 -4 10 9 -1 12 -9 17 -10 17 -2 0 7 8 11 18 9 9 -1
23 1 31 6 11 7 12 6 6 -5 -7 -12 -6 -12 7 -1 8 7 23 10 32 6 9 -3 16 -2 16 4
0 6 10 8 22 4 15 -4 19 -2 13 7 -6 10 0 12 24 6 24 -5 32 -3 37 10 4 10 14 15
25 12 11 -3 19 -1 19 5 0 5 4 7 9 4 5 -3 14 1 21 9 7 8 16 12 21 9 5 -3 9 -1
9 3 0 5 7 18 16 29 8 10 12 12 8 4 -7 -13 -6 -13 10 -1 9 8 15 20 12 28 -3 8
-1 11 4 8 9 -6 14 14 11 43 -1 6 3 12 9 12 5 0 10 5 10 11 0 5 -6 7 -12 3 -10
-6 -10 -4 -2 7 7 8 8 22 3 34 -5 14 -8 15 -9 5 -1 -9 -6 -5 -12 10 -6 14 -10
29 -9 33 1 5 -3 6 -8 3 -5 -3 -11 3 -14 14 -3 12 -14 20 -27 20 -14 0 -19 4
-14 12 5 8 2 9 -10 5 -10 -4 -15 -3 -11 3 6 9 -8 14 -29 11 -4 -1 -14 3 -22 9
-7 7 -22 9 -34 5 -11 -3 -20 -2 -20 3 0 5 -9 12 -20 15 -11 3 -20 2 -20 -2 0
-4 -10 -7 -21 -8 -12 -1 -19 1 -15 4 3 3 2 11 -4 18 -9 11 6 11 123 4 15 -1
27 -6 27 -11 0 -4 11 -8 24 -8 14 0 28 -5 31 -11 4 -6 13 -8 21 -5 8 3 14 1
14 -5 0 -6 6 -9 14 -6 8 3 16 1 18 -5 3 -8 11 -7 27 2 13 6 21 7 17 2 -7 -12
32 -10 51 1 7 4 24 5 38 1 16 -4 25 -2 25 5 0 8 4 8 14 -1 8 -7 12 -17 9 -22
-3 -4 0 -12 8 -17 15 -9 23 -109 8 -109 -5 0 -7 -13 -5 -30 2 -16 -1 -30 -6
-30 -5 0 -6 -5 -3 -10 4 -6 3 -16 -3 -23 -16 -22 -23 -49 -9 -41 9 6 9 4 -1
-8 -7 -9 -11 -28 -8 -42 3 -15 1 -24 -4 -21 -9 6 -23 -42 -15 -54 8 -14 -26
-22 -41 -10 -11 9 -15 7 -20 -5 -4 -9 -18 -16 -34 -16 -16 0 -32 -5 -35 -10
-4 -6 -15 -8 -26 -5 -11 4 -19 2 -19 -5 0 -6 -6 -10 -12 -8 -23 4 -88 -23 -82
-34 4 -7 2 -8 -5 -4 -14 9 -81 -12 -81 -25 0 -5 -5 -9 -11 -9 -6 0 -22 -9 -36
-20 -16 -12 -34 -18 -45 -15 -12 4 -18 1 -18 -8 0 -17 -42 -33 -82 -32 -23 1
-25 -1 -15 -15 6 -8 2 -7 -10 4 -13 10 -21 22 -18 26 2 4 -3 16 -11 26 -9 10
-12 12 -8 4 7 -13 5 -13 -9 -1 -9 7 -15 16 -13 20 3 4 -4 7 -15 8 -17 2 -17 0
-5 -20 8 -12 17 -37 21 -54 4 -18 10 -35 15 -38 10 -6 5 28 -6 48 -5 8 -2 8 9
-2 20 -16 22 -42 5 -60 -20 -20 33 -10 56 12 18 15 38 22 59 18 4 -1 10 6 13
14 4 8 13 15 20 15 12 0 11 -5 -2 -25 -12 -19 -20 -23 -29 -15 -10 8 -13 6
-11 -7 1 -17 -3 -19 -40 -22 -8 0 -13 -5 -9 -10 3 -5 -4 -13 -15 -16 -12 -4
-19 -12 -17 -18 5 -17 37 -21 51 -6 8 9 8 10 -3 4 -9 -5 -12 -4 -7 3 4 7 14
12 22 12 9 0 12 5 8 13 -6 9 -4 9 7 0 16 -16 33 -17 23 -2 -4 8 1 9 17 4 18
-5 20 -4 9 4 -12 9 -12 11 2 16 10 4 22 3 29 -1 7 -4 9 -3 6 3 -4 6 0 14 9 17
8 3 12 2 9 -4 -3 -6 -1 -10 4 -10 6 0 11 7 11 15 0 9 6 15 13 14 6 -1 20 -1
30 0 17 1 17 2 2 17 -9 9 -13 19 -10 22 3 4 9 2 13 -3 4 -6 20 -11 36 -12 18
-1 24 2 16 7 -16 10 3 22 24 14 9 -3 16 -1 16 6 0 6 -4 8 -10 5 -5 -3 -10 0
-10 7 0 9 12 14 35 14 19 0 41 6 48 13 10 11 7 12 -18 7 -21 -5 -26 -4 -15 3
8 5 37 9 64 9 33 -1 43 -4 30 -9 -17 -7 -17 -8 4 -8 28 -1 52 43 33 62 -9 9
-14 9 -20 -1 -5 -8 -10 -13 -12 -11 -10 5 -196 -65 -213 -81 -5 -5 -15 -6 -22
-3 -8 3 -14 -1 -14 -11 0 -9 -5 -16 -10 -16 -6 0 -22 -11 -35 -24 -19 -20 -26
-22 -35 -11 -8 10 -6 17 9 27 12 8 18 18 13 23 -4 5 -1 5 6 1 8 -5 21 0 34 13
12 14 26 20 38 16 11 -3 22 0 27 8 4 7 35 24 68 37 33 13 66 28 74 34 10 8 15
8 18 -1 2 -7 11 -9 19 -6 7 3 11 10 7 17 -3 6 -3 8 2 4 4 -4 14 -3 21 3 8 6
14 7 18 0 9 -14 37 -2 29 13 -3 6 -1 6 8 -1 10 -10 10 -16 1 -25 -36 -36 4
-60 42 -25 33 31 33 41 1 33 -15 -4 -25 -2 -25 4 0 6 6 8 13 4 8 -5 8 -2 -2 9
-9 11 -10 17 -2 19 29 3 36 2 36 -7 0 -5 4 -16 8 -22 5 -7 6 -17 3 -22 -7 -11
14 -20 32 -14 6 3 9 10 5 15 -4 7 2 9 15 6 14 -4 20 -2 15 5 -4 6 2 8 15 5 12
-4 22 -3 22 1 0 4 13 6 30 5 16 -1 27 2 24 7 -11 19 20 36 52 29 30 -7 57 0
55 14 -2 17 0 20 7 8 5 -7 16 -10 25 -6 9 3 15 10 12 14 -3 5 5 6 17 2 13 -3
19 -1 15 5 -5 7 0 9 13 6 14 -4 20 0 20 11 0 16 11 20 38 17 8 -1 22 7 31 18
10 12 25 21 32 21 8 0 20 9 27 21 11 17 11 23 -2 32 -13 11 -13 13 0 26 13 11
15 11 13 0 -6 -34 33 -68 43 -38 2 6 21 12 43 14 26 3 45 11 54 24 7 12 23 22
35 22 17 1 17 2 4 6 -10 2 -18 9 -18 14 0 11 11 11 29 0 10 -6 23 -5 35 2 12
6 27 10 34 9 7 -2 11 3 10 10 -2 8 5 12 19 11 17 -2 21 1 16 14 -5 13 -2 15
20 9 21 -5 27 -3 27 9 0 9 12 18 31 22 22 4 27 8 17 14 -9 6 -6 9 12 10 23 0
24 1 5 10 -15 7 -9 8 23 4 33 -4 42 -2 42 10 0 8 5 15 11 15 5 0 7 5 4 10 -4
7 3 8 20 4 18 -4 25 -3 23 6 -2 7 7 14 20 16 12 2 22 0 22 -4 0 -14 -45 -49
-58 -44 -7 2 -12 -4 -12 -13 0 -9 -4 -13 -10 -10 -5 3 -10 1 -10 -5 0 -6 -4
-8 -10 -5 -5 3 -10 -1 -10 -9 0 -10 -6 -13 -15 -10 -10 4 -15 0 -15 -11 0 -9
-4 -14 -9 -11 -5 3 -14 -1 -21 -9 -7 -8 -16 -12 -21 -9 -5 3 -9 -2 -9 -11 0
-9 -5 -13 -11 -10 -5 4 -21 -5 -34 -19 -14 -16 -30 -23 -39 -20 -9 3 -16 1
-16 -5 0 -6 -6 -11 -13 -11 -7 0 -18 -9 -25 -21 -7 -12 -16 -18 -19 -15 -3 3
-18 -3 -33 -14 -15 -11 -30 -17 -33 -13 -4 3 -13 1 -20 -5 -8 -7 -17 -9 -21
-5 -4 4 -4 -1 0 -12 6 -15 4 -17 -9 -12 -9 3 -17 2 -17 -3 0 -5 -7 -7 -16 -3
-9 3 -21 -3 -30 -16 -9 -12 -26 -21 -40 -21 -14 0 -34 -9 -46 -20 -12 -10 -25
-17 -30 -14 -5 4 -18 -3 -29 -15 -20 -21 -31 -25 -58 -22 -7 2 -10 -2 -7 -7 3
-6 -2 -8 -14 -5 -14 4 -20 0 -20 -12 0 -11 -5 -15 -14 -12 -8 3 -16 3 -18 -1
-6 -15 -78 -53 -88 -47 -5 3 -10 2 -10 -4 0 -6 -7 -7 -17 -4 -9 4 -14 2 -11
-3 3 -5 -7 -9 -23 -10 -16 -1 -37 -8 -47 -16 -9 -9 -23 -13 -29 -11 -7 3 -13
-2 -13 -10 0 -17 -102 -61 -137 -59 -11 1 -23 -5 -26 -12 -4 -9 -14 -12 -28
-9 -14 4 -20 2 -16 -4 4 -6 1 -11 -6 -10 -30 1 -48 -4 -43 -11 7 -12 -37 -35
-71 -37 -41 -3 -45 -4 -39 -14 7 -10 -47 -34 -80 -36 -12 0 -31 -11 -41 -24
-12 -14 -30 -23 -46 -23 -16 0 -24 -5 -20 -11 3 -6 1 -7 -6 -3 -16 10 -51 -3
-51 -18 0 -8 -14 -19 -30 -26 -28 -12 -29 -14 -13 -26 10 -8 14 -13 8 -12 -15
3 -131 -55 -118 -59 6 -2 27 3 47 11 20 8 44 12 53 9 11 -4 14 -3 9 5 -6 11
12 17 37 13 4 0 7 3 7 8 0 5 6 9 13 8 31 -1 48 4 43 12 -4 5 3 7 13 4 13 -3
23 2 30 15 12 23 64 44 86 36 9 -4 15 0 15 10 0 9 5 16 11 16 5 0 8 -4 4 -10
-3 -5 7 -5 25 1 16 6 28 15 25 19 -3 5 4 7 15 5 13 -3 18 0 14 7 -5 7 0 9 14
6 15 -4 22 -2 22 8 0 14 12 18 39 15 8 -2 10 2 5 10 -4 8 -3 10 4 5 16 -10 62
4 62 19 0 7 10 11 24 10 14 -2 27 3 30 11 3 8 12 14 21 14 8 0 15 4 15 9 0 7
42 22 75 26 6 0 22 9 37 18 14 10 37 20 50 21 52 7 84 20 100 40 14 17 20 18
27 8 6 -11 9 -10 15 3 4 11 12 14 26 10 14 -4 20 -2 18 7 -2 7 5 12 14 12 10
-1 15 2 13 7 -8 11 33 32 50 25 8 -3 20 0 27 7 7 7 19 12 26 13 28 2 33 4 28
13 -3 5 2 15 11 22 14 12 16 12 8 -1 -7 -12 -5 -12 11 1 10 9 25 14 33 11 8
-3 11 0 7 7 -5 7 -1 9 9 5 9 -4 23 3 35 17 17 21 21 22 31 9 9 -13 10 -12 5 3
-5 17 6 22 47 18 9 -1 20 5 23 13 3 9 10 13 15 10 5 -3 9 0 9 5 0 6 3 10 8 10
24 -4 42 3 42 16 0 9 6 15 13 14 32 -4 49 2 44 15 -4 10 0 12 14 9 11 -3 21 1
25 11 3 9 10 13 15 10 5 -3 9 2 9 11 0 11 5 15 15 11 9 -3 19 3 25 14 13 25 9
25 -32 1 -138 -79 -167 -94 -197 -107 -19 -8 -37 -11 -40 -6 -3 5 -12 11 -20
14 -8 2 18 21 60 43 80 41 293 172 349 215 135 101 162 121 167 116 24 -24
-72 -124 -189 -195 -45 -28 -83 -58 -84 -66 -3 -19 12 -20 20 0 3 8 9 15 13
14 20 -3 34 2 28 11 -3 6 1 10 9 10 9 0 16 5 16 12 0 6 3 8 6 5 4 -4 15 3 25
15 11 11 19 17 19 12 0 -5 5 -1 11 9 6 9 14 15 20 12 10 -7 34 13 37 30 1 5 9
10 17 10 8 0 15 3 15 7 0 4 12 19 25 32 22 22 28 37 24 62 0 4 5 11 13 15 9 6
9 9 1 9 -7 0 -10 12 -8 30 3 20 -1 33 -9 36 -8 3 -12 13 -9 23 5 19 -16 41
-44 46 -10 1 -17 8 -15 15 1 6 -1 9 -6 6 -10 -6 -43 30 -35 38 4 3 -6 6 -20 6
-15 0 -27 5 -27 10 0 17 -43 29 -59 16 -10 -7 -13 -7 -8 0 4 7 -9 11 -38 11
-25 0 -45 -4 -45 -9 0 -5 -6 -8 -12 -7 -25 3 -39 -1 -34 -10 3 -5 -8 -8 -25
-7 -19 1 -33 -3 -36 -11 -4 -10 -15 -12 -36 -7 -20 4 -27 3 -23 -5 4 -6 2 -11
-3 -11 -6 0 -11 4 -11 10 0 5 -7 7 -15 4 -8 -4 -13 -9 -10 -13 2 -5 -18 -7
-45 -5 -36 2 -48 -1 -43 -9 4 -7 -1 -6 -10 2 -12 10 -17 10 -17 2 0 -8 -8 -10
-21 -6 -16 6 -20 4 -13 -6 6 -12 5 -12 -8 -1 -11 9 -18 10 -23 2 -8 -13 -52
-13 -60 0 -3 6 -12 10 -18 10 -7 0 -6 -4 3 -10 12 -7 8 -10 -15 -10 -20 0 -26
3 -17 9 19 12 -39 31 -69 24 -14 -4 -20 -2 -16 5 9 13 -22 10 -31 -4 -10 -13
-32 -16 -32 -4 0 6 -5 10 -11 10 -6 0 -7 -6 -2 -12 4 -7 -5 -5 -19 4 -15 10
-29 14 -32 9 -4 -5 -15 -7 -26 -4 -12 3 -20 0 -20 -7 0 -9 -4 -9 -17 1 -9 8
-24 13 -35 11 -10 -2 -18 2 -18 8 0 6 -5 8 -12 3 -7 -4 -26 -8 -43 -9 -16 -1
-38 -2 -48 -3 -11 -1 -15 -6 -11 -13 4 -7 3 -8 -4 -4 -6 4 -26 9 -44 11 -85
11 -111 17 -133 31 -12 8 -27 14 -31 13 -10 -2 -40 8 -68 22 -14 8 -17 7 -11
-3 3 -7 0 -5 -8 5 -8 9 -21 15 -30 11 -8 -3 -18 -1 -21 4 -3 6 -15 8 -25 5
-13 -3 -19 0 -18 12 1 10 -11 22 -31 30 -24 10 -31 11 -25 2 5 -9 4 -9 -8 0
-9 7 -33 10 -58 8 -24 -3 -49 -1 -55 3 -6 3 -14 7 -18 8 -5 1 -11 2 -14 3 -4
0 -1 7 5 15 9 11 7 15 -10 19 -12 3 -18 10 -14 16 3 6 0 11 -8 11 -8 0 -17 7
-21 15 -3 8 -15 15 -26 15 -12 0 -18 4 -15 10 3 5 -6 12 -20 16 -14 3 -24 9
-21 12 7 6 -33 36 -51 38 -7 1 -19 9 -28 17 -18 18 -54 31 -62 23 -4 -3 -11
-2 -17 3 -6 4 -17 6 -24 4z m276 -345 c17 -17 15 -38 -3 -38 -8 0 -15 5 -15
11 0 5 -5 7 -10 4 -8 -5 -7 -11 1 -21 6 -7 15 -12 18 -9 4 2 8 -11 8 -30 0
-19 -4 -35 -8 -35 -17 0 0 -36 22 -47 31 -16 60 2 75 47 6 19 13 27 16 20 3
-11 9 -10 29 4 14 11 17 16 7 13 -11 -4 -18 -1 -18 7 0 8 13 16 30 18 20 3 27
1 21 -6 -6 -8 1 -11 24 -11 28 0 31 2 22 15 -6 8 -2 7 10 -4 13 -10 21 -22 18
-26 -4 -7 58 -40 75 -40 6 0 10 6 10 14 0 16 46 56 63 56 6 0 2 -7 -9 -16 -15
-13 -16 -15 -2 -10 12 3 15 1 11 -10 -3 -7 0 -14 6 -14 6 0 16 -11 21 -25 7
-18 14 -23 26 -18 12 4 15 3 10 -5 -4 -7 -4 -12 1 -12 13 0 35 17 35 26 0 5 8
17 18 26 16 15 19 15 24 2 3 -9 3 -21 -1 -26 -3 -6 -1 -8 4 -5 6 4 17 -1 24
-10 12 -14 12 -16 -1 -8 -12 6 -13 5 -3 -5 9 -10 10 -17 2 -27 -8 -9 -8 -13 0
-13 6 0 14 7 17 15 4 8 12 15 20 15 14 0 20 -29 7 -31 -5 0 -20 -3 -35 -5 -19
-3 -28 0 -28 8 0 9 -3 9 -10 -2 -9 -13 -10 -13 -10 0 0 13 -1 13 -10 0 -7 -11
-10 -11 -10 -2 0 7 -4 10 -10 7 -5 -3 -10 -1 -10 4 0 6 -7 11 -15 11 -8 0 -15
5 -15 10 0 6 -7 10 -15 10 -8 0 -15 -4 -15 -10 0 -5 -5 -10 -11 -10 -8 0 -8 4
0 14 9 11 8 15 -4 20 -9 3 -14 2 -11 -2 2 -4 1 -14 -4 -22 -6 -10 -14 -7 -34
15 -14 15 -26 23 -26 16 0 -6 -7 -11 -16 -11 -8 0 -13 4 -10 8 3 5 -1 9 -9 9
-8 0 -12 -4 -9 -9 3 -4 -7 -8 -21 -8 -18 0 -24 4 -19 13 4 6 -1 5 -12 -4 -10
-9 -43 -24 -71 -35 -29 -10 -48 -21 -43 -24 6 -4 -20 -6 -57 -5 -42 0 -68 5
-71 13 -2 7 -10 12 -18 12 -10 0 -12 8 -8 29 5 26 4 29 -13 25 -11 -3 -26 2
-35 13 -20 23 -35 68 -19 59 7 -4 9 -1 5 8 -3 9 6 21 25 32 17 10 31 22 31 26
0 12 25 9 38 -4z m1652 3 c0 -5 11 -11 25 -13 22 -5 23 -3 13 10 -12 13 -10
14 9 2 12 -8 20 -17 17 -22 -3 -4 7 -10 21 -14 14 -3 25 -10 25 -16 0 -5 4 -7
9 -4 10 7 9 -6 -3 -42 -5 -15 -13 -21 -22 -18 -8 3 -14 -1 -14 -9 0 -9 -6 -12
-15 -8 -10 3 -15 0 -13 -8 2 -9 -4 -13 -14 -11 -11 2 -18 -3 -18 -12 0 -10 -6
-13 -15 -9 -10 3 -15 0 -13 -8 2 -9 -4 -13 -16 -11 -10 2 -15 -1 -12 -6 5 -8
-16 -19 -49 -26 -23 -5 -45 -19 -40 -26 3 -5 -4 -6 -15 -3 -16 4 -19 2 -13
-12 4 -12 3 -16 -4 -12 -6 4 -16 0 -23 -8 -6 -7 -19 -11 -27 -8 -11 4 -14 2
-9 -5 4 -7 2 -13 -3 -13 -6 -1 -15 -3 -21 -4 -5 -1 -17 -3 -25 -4 -8 0 -14 -5
-12 -10 1 -5 -2 -9 -7 -9 -5 0 -12 -4 -15 -9 -10 -13 -64 -37 -84 -36 -12 0
-16 -5 -13 -14 4 -9 0 -14 -12 -12 -31 3 -43 -1 -37 -11 3 -5 0 -7 -9 -4 -18
7 -59 -14 -51 -27 6 -9 -15 -13 -44 -10 -7 2 -10 -2 -7 -7 3 -6 -2 -8 -14 -5
-11 3 -20 1 -20 -5 0 -15 -59 -43 -97 -47 -24 -2 -30 1 -26 11 3 8 -1 22 -8
31 -11 14 -11 15 -1 9 10 -6 13 -2 12 15 -1 13 -1 27 0 32 1 4 3 10 4 15 1 4
5 13 10 21 7 10 6 12 -4 6 -9 -5 -11 -4 -6 3 4 7 14 12 22 12 8 0 14 4 14 10
0 5 -6 7 -13 4 -10 -4 -12 3 -9 26 4 31 16 39 28 18 5 -7 2 -8 -7 -3 -8 5 -11
4 -6 -1 5 -5 14 -9 20 -9 7 0 12 -5 12 -12 0 -6 4 -15 9 -20 5 -5 6 -3 2 5 -4
7 -1 12 8 12 8 0 16 -6 18 -12 3 -8 17 0 36 21 26 29 32 32 38 18 3 -9 11 -17
17 -17 5 0 2 9 -8 20 -18 20 -18 21 1 41 11 11 33 22 48 25 25 4 26 3 16 -16
-9 -16 -8 -20 6 -20 13 0 15 6 11 30 -6 27 -3 31 40 50 55 24 53 24 52 3 0
-10 -3 -13 -5 -6 -7 17 -54 -5 -54 -26 0 -14 2 -14 10 -1 5 8 20 15 32 15 15
0 24 7 26 20 2 11 9 25 14 30 8 7 9 6 4 -2 -4 -7 -2 -13 3 -13 6 0 11 5 11 11
0 7 12 10 30 7 23 -3 27 -2 19 8 -11 14 22 35 74 48 15 3 27 11 27 17 0 6 9 8
21 4 15 -5 20 -3 17 6 -5 14 51 50 65 42 13 -7 8 -23 -8 -23 -8 0 -15 -5 -15
-11 0 -6 -7 -9 -15 -5 -9 3 -15 0 -15 -10 0 -11 6 -13 22 -8 27 8 78 54 78 69
0 5 -7 2 -14 -7 -7 -10 -16 -15 -19 -11 -9 9 -9 33 1 32 19 -3 25 2 12 11 -12
8 -11 10 8 10 12 0 22 -4 22 -9z m-136 -36 c7 -20 -24 -36 -47 -23 -22 11 -51
-8 -43 -29 4 -11 0 -13 -15 -8 -15 5 -19 4 -15 -4 4 -6 2 -11 -3 -11 -6 0 -11
5 -11 11 0 5 -4 8 -10 4 -5 -3 -7 -12 -3 -20 3 -8 0 -15 -7 -15 -6 0 -14 9
-17 20 -6 21 -18 26 -27 11 -4 -5 0 -12 6 -15 11 -5 11 -7 0 -12 -6 -3 -10
-10 -7 -14 3 -5 0 -12 -6 -16 -7 -4 -9 -3 -5 4 3 6 2 13 -4 17 -5 3 -10 -2
-10 -12 0 -14 -9 -19 -45 -21 -36 -2 -43 1 -39 13 4 8 1 15 -6 15 -9 0 -11
-11 -7 -35 5 -33 0 -41 -27 -36 -5 1 -16 -1 -25 -5 -9 -4 -23 -8 -31 -8 -9 -1
-14 -9 -12 -19 2 -10 -6 -27 -17 -36 -12 -10 -21 -23 -21 -29 0 -17 -55 -7
-58 12 -2 9 1 16 6 16 6 0 15 14 21 30 5 17 16 30 24 30 14 0 32 27 29 43 -1
4 5 7 14 7 10 0 14 -5 10 -16 -3 -8 -2 -12 4 -9 6 3 10 1 10 -4 0 -6 4 -11 9
-11 5 0 7 14 6 30 -1 17 1 30 5 30 5 0 6 9 3 20 -4 15 -11 19 -24 15 -12 -4
-21 -1 -25 9 -3 9 -10 14 -14 11 -5 -3 -12 0 -16 6 -4 7 -3 9 2 6 6 -3 16 -2
24 3 10 6 20 4 31 -6 15 -13 54 -10 45 5 -2 3 11 7 30 8 23 1 34 -3 34 -12 0
-8 -8 -12 -20 -10 -25 5 -37 -13 -14 -22 11 -4 23 1 36 16 l18 23 0 -26 c0
-14 5 -26 11 -26 7 0 9 10 5 25 -8 30 23 52 44 32 10 -9 11 -9 6 1 -10 17 9
15 27 -3 13 -12 16 -12 20 6 4 13 10 18 17 14 9 -6 9 -10 -1 -17 -11 -7 -9 -8
6 -5 11 2 19 9 17 16 -2 9 3 11 13 8 8 -4 15 -2 15 3 0 16 35 16 48 0 7 -8 12
-10 11 -5 -5 34 13 49 25 20z m-824 -67 c0 -10 5 -18 11 -18 5 0 7 6 3 13 -4
7 -3 9 2 4 5 -5 10 -13 10 -18 1 -5 2 -14 3 -20 0 -5 6 -7 11 -4 6 3 10 1 10
-5 0 -6 4 -9 9 -5 5 3 12 1 16 -5 3 -5 10 -10 15 -10 8 0 25 49 21 64 -1 5 5
4 13 -3 8 -7 13 -18 10 -25 -3 -7 2 -19 11 -26 8 -7 15 -9 15 -4 0 4 7 -1 15
-12 10 -13 14 -15 15 -5 0 8 2 12 5 9 11 -10 -7 -37 -21 -31 -8 3 -12 9 -9 13
3 5 -3 7 -12 6 -10 -2 -18 -9 -18 -16 0 -20 87 -19 93 0 3 13 2 13 -7 0 -9
-13 -11 -13 -11 2 0 9 7 23 15 32 9 8 15 19 14 23 -5 29 2 36 19 20 10 -10 22
-14 27 -10 4 5 5 2 1 -4 -4 -8 -2 -13 7 -13 7 0 13 -9 12 -20 -2 -23 -15 -40
-15 -18 0 18 -27 20 -34 3 -2 -7 7 -18 21 -24 25 -12 25 -12 7 -33 -11 -12
-13 -18 -7 -14 7 4 1 -17 -12 -46 -14 -29 -25 -59 -25 -65 0 -7 -5 -13 -11
-13 -5 0 -7 5 -3 12 5 7 3 8 -5 3 -9 -5 -10 -10 -2 -18 16 -16 14 -27 -5 -27
-8 0 -13 4 -10 9 4 5 -3 7 -15 4 -22 -6 -15 -18 16 -27 12 -3 9 -4 -7 -2 -17
2 -28 -2 -28 -9 0 -6 10 -11 23 -11 18 1 23 -5 25 -31 2 -19 -1 -33 -7 -33 -6
0 -11 -5 -11 -11 0 -5 5 -7 10 -4 6 3 10 -3 10 -14 0 -12 -5 -21 -11 -21 -5 0
-7 6 -4 13 4 6 0 4 -8 -5 -17 -22 -32 -11 -14 11 11 14 10 14 -6 2 -10 -8 -16
-20 -13 -28 4 -9 1 -11 -5 -7 -6 4 -15 1 -19 -5 -7 -12 -66 -31 -102 -34 -10
-1 -18 -5 -18 -10 0 -4 -5 -5 -10 -2 -6 4 -18 1 -27 -7 -15 -12 -15 -11 -2 10
8 12 19 20 26 18 14 -6 18 -1 27 36 5 20 2 28 -11 31 -16 4 -15 6 4 12 13 4
21 15 20 26 -1 10 -3 16 -6 14 -2 -3 -10 4 -18 15 -14 19 -9 70 7 70 4 0 11 7
14 16 5 14 4 15 -8 5 -12 -10 -14 -9 -11 6 2 10 4 21 4 26 1 4 7 7 15 7 8 0
18 5 22 11 5 9 -1 10 -21 5 -25 -6 -27 -5 -16 8 9 11 10 16 2 16 -6 0 -11 7
-11 15 0 8 -11 39 -24 69 -13 30 -21 58 -18 62 4 4 2 4 -4 1 -6 -4 -16 5 -23
19 -15 34 -14 42 7 46 33 7 42 5 42 -14z"/>
<path d="M2196 2724 c-3 -7 -13 -10 -24 -8 -10 3 -25 -2 -33 -12 -12 -15 -12
-16 0 -9 10 5 12 4 7 -4 -4 -6 -16 -9 -25 -6 -11 3 -24 -2 -32 -11 -8 -9 -34
-25 -59 -36 -61 -26 -78 -44 -86 -87 -4 -20 -14 -44 -22 -54 -11 -13 -13 -20
-4 -29 8 -8 7 -17 -5 -35 -9 -13 -13 -26 -10 -29 10 -10 128 34 169 62 20 14
44 37 53 50 9 14 20 22 26 19 5 -4 9 -3 8 2 -4 21 2 44 10 39 5 -3 11 3 14 14
3 13 1 18 -6 13 -7 -3 -3 4 8 17 12 14 14 20 5 15 -13 -8 -13 -6 -2 7 8 9 13
25 12 35 -4 31 0 43 11 43 6 0 8 -9 4 -20 -5 -15 -3 -18 9 -14 18 7 21 20 6
29 -6 4 -8 10 -6 14 3 4 -1 8 -9 8 -8 0 -16 -6 -19 -13z m-37 -61 c-11 -14
-11 -15 0 -9 10 7 12 3 6 -15 -10 -34 -25 -50 -39 -42 -6 3 -3 -3 7 -14 17
-20 16 -22 -28 -71 -43 -48 -77 -67 -173 -97 -22 -6 -23 -5 -12 15 6 11 19 24
28 27 27 9 52 45 52 75 0 28 40 65 58 54 5 -3 18 4 28 16 11 12 13 18 7 14 -8
-4 -13 -2 -14 6 0 7 -4 4 -9 -7 -5 -11 -9 -14 -9 -7 -1 6 -6 12 -12 12 -5 0
-8 -4 -5 -8 3 -4 -11 -16 -29 -26 -19 -11 -32 -23 -29 -27 3 -5 -2 -9 -10 -9
-9 0 -16 -4 -16 -10 0 -5 8 -7 18 -4 10 4 13 3 6 -3 -6 -4 -10 -16 -8 -25 1
-10 -3 -21 -8 -25 -6 -3 -8 -1 -4 5 3 6 2 13 -4 17 -5 3 -10 -3 -10 -15 0 -12
-4 -19 -9 -16 -10 6 1 49 26 102 15 31 49 54 80 54 9 0 24 7 34 16 11 10 19
12 24 5 3 -6 -2 -11 -12 -12 -14 0 -12 -3 7 -11 38 -17 47 -17 47 -2 0 17 -17
19 -18 2 0 -10 -2 -10 -6 0 -3 7 5 24 18 38 25 26 40 25 18 -3z"/>
<path d="M1750 2657 c-8 -12 -13 -27 -12 -34 2 -7 -17 -32 -40 -55 -24 -24
-42 -49 -40 -56 7 -31 -216 -104 -377 -122 -140 -17 -323 6 -443 55 -12 5 -18
3 -18 -7 0 -19 90 -71 170 -99 57 -20 85 -23 220 -23 165 -1 235 12 376 67 59
24 61 24 84 5 12 -10 20 -21 17 -25 -4 -3 0 -11 8 -17 13 -9 11 -11 -9 -11
-13 0 -22 5 -19 11 2 5 -4 18 -14 27 -17 15 -23 14 -88 -9 -137 -50 -231 -67
-375 -68 -74 -1 -166 3 -205 7 -65 7 -68 6 -50 -8 36 -28 148 -56 260 -65
l110 -8 -154 2 c-131 3 -151 1 -136 -10 11 -8 24 -14 31 -14 7 0 15 -3 17 -7
6 -10 -100 -9 -109 0 -11 11 -26 8 -19 -3 3 -5 1 -10 -4 -10 -6 0 -11 4 -11 8
0 5 -6 9 -12 9 -7 0 -24 3 -38 7 -19 6 -21 5 -10 -3 21 -15 8 -13 -35 4 -20 9
-46 13 -57 9 -12 -3 -18 -2 -15 3 6 10 -8 13 -51 13 -13 0 -20 5 -17 10 5 9
-16 14 -52 13 -7 -1 -13 3 -13 7 0 4 -7 11 -16 14 -8 3 -12 2 -9 -4 3 -6 1
-10 -4 -10 -6 0 -11 3 -11 8 0 4 -11 12 -25 19 -14 6 -23 7 -19 2 3 -5 0 -9
-7 -9 -7 0 -5 -8 7 -22 12 -14 14 -19 4 -13 -12 6 -12 4 1 -9 9 -10 25 -19 35
-20 10 -2 18 -9 17 -14 -2 -7 4 -9 14 -5 11 4 14 3 9 -5 -6 -11 5 -16 26 -14
3 1 11 -5 18 -13 6 -7 19 -11 27 -8 10 4 14 2 9 -5 -7 -12 28 -27 43 -18 5 4
15 0 23 -7 7 -7 27 -14 43 -15 17 -1 32 -7 33 -12 2 -6 8 -7 13 -4 14 8 70
-16 63 -27 -3 -5 -17 -1 -32 8 -26 17 -27 17 -12 -1 14 -18 14 -19 -8 -7 -13
7 -30 10 -37 7 -8 -3 -17 0 -21 5 -3 6 -15 9 -25 6 -11 -3 -19 -1 -19 3 0 4
-8 6 -19 3 -10 -2 -34 0 -54 5 -30 8 -35 7 -33 -7 2 -9 12 -21 23 -26 12 -6
27 -16 35 -23 8 -7 27 -13 41 -14 14 -1 23 -6 21 -10 -3 -4 12 -8 33 -9 21 0
33 -3 26 -5 -7 -3 -10 -11 -7 -19 4 -10 0 -12 -15 -8 -11 3 -18 9 -15 14 10
17 -13 9 -31 -11 -17 -19 -17 -20 6 -29 51 -20 65 -25 81 -26 10 -1 25 -8 35
-16 12 -10 15 -10 9 -1 -9 15 26 9 82 -14 18 -7 30 -9 27 -4 -3 6 -1 10 4 10
6 0 11 -5 11 -11 0 -6 13 -8 30 -5 22 3 30 0 30 -10 0 -9 -4 -13 -9 -10 -5 3
-11 -3 -14 -14 -3 -11 -1 -18 4 -14 5 3 9 0 9 -6 0 -7 7 -9 16 -6 9 4 23 1 31
-6 8 -6 40 -13 71 -14 31 -1 57 -3 57 -4 0 -5 71 -6 80 -1 5 2 29 4 53 2 31
-2 50 3 65 16 13 12 18 13 12 3 -8 -13 -7 -13 8 -1 13 10 17 10 17 1 0 -9 3
-10 13 -1 8 6 18 7 22 3 5 -4 4 -1 0 7 -6 11 -4 13 8 8 10 -4 17 -2 17 4 0 7
10 9 25 5 14 -4 25 -2 25 3 0 6 7 8 15 5 9 -4 15 0 15 7 0 11 2 11 10 -1 8
-12 10 -12 15 2 4 9 13 14 21 11 8 -3 14 0 14 6 0 6 7 8 15 5 8 -4 15 -1 15 6
0 6 8 10 18 8 9 -2 23 3 30 12 8 8 11 9 7 3 -10 -21 14 -15 27 7 16 25 34 26
48 3 9 -16 10 -15 5 5 -14 51 6 16 41 -73 20 -52 39 -93 41 -91 2 2 -12 45
-31 96 -20 51 -36 95 -36 99 0 17 72 46 130 51 61 6 58 7 -37 8 -90 2 -104 4
-113 21 -5 11 -10 21 -10 23 0 2 43 3 94 3 63 0 99 4 107 13 10 10 3 12 -39
12 -55 0 -136 26 -126 41 3 5 -4 9 -14 9 -16 0 -82 60 -82 74 0 2 -11 34 -25
71 -13 37 -22 72 -19 77 3 4 1 8 -4 8 -13 0 -42 73 -42 105 0 13 5 27 11 30 6
4 8 14 5 22 -3 8 -2 12 2 9 5 -3 26 16 47 42 24 30 29 38 12 23 -15 -14 -27
-20 -27 -14 0 6 7 16 16 23 22 19 34 44 25 58 -4 7 -11 4 -21 -11z m-89 -201
c5 3 9 2 10 -3 0 -4 2 -16 4 -26 3 -14 1 -16 -10 -7 -11 9 -29 6 -77 -13 -126
-51 -208 -69 -339 -74 -74 -3 -146 -1 -175 5 -53 12 -168 52 -162 57 2 2 32
-3 68 -11 91 -20 306 -19 405 1 79 16 214 58 244 75 10 5 17 5 19 -1 2 -5 8
-7 13 -3z m78 -202 c33 -74 77 -121 144 -154 l62 -30 -50 6 c-59 7 -172 56
-200 87 -41 45 -57 48 -121 22 -33 -14 -65 -25 -72 -25 -7 0 -39 -9 -71 -20
-90 -30 -294 -54 -337 -40 -20 7 -47 10 -60 7 -13 -2 -27 0 -30 4 -3 5 -10 9
-15 9 -6 0 -7 -5 -3 -12 5 -8 3 -8 -7 -2 -8 5 -23 9 -34 10 -11 1 -27 4 -35 7
-8 4 -22 6 -30 5 -35 -3 -61 3 -55 12 6 9 -22 15 -52 11 -7 -1 -10 5 -7 13 4
11 0 13 -15 9 -13 -3 -21 -1 -21 6 0 7 -4 10 -9 7 -12 -8 -41 3 -41 15 0 11
54 -1 58 -13 2 -4 8 -5 13 -2 6 3 16 0 24 -6 8 -7 15 -9 15 -5 0 4 7 2 15 -5
8 -6 23 -9 35 -5 12 4 27 1 35 -5 8 -7 15 -10 15 -6 0 3 12 1 26 -4 16 -7 23
-7 19 0 -3 6 -2 10 4 10 5 0 13 -4 16 -10 8 -14 55 -13 55 1 0 8 4 8 13 1 13
-11 46 -10 77 1 8 3 65 10 125 16 131 13 280 50 390 95 44 19 85 34 92 35 7 0
21 -20 32 -45z m-128 -162 c-135 -54 -420 -110 -499 -96 -26 4 -69 8 -97 9
-27 1 -58 6 -68 11 -13 8 0 10 50 10 156 1 378 36 522 83 79 26 87 27 104 12
18 -15 17 -16 -12 -29z m109 -37 l25 -13 -47 -21 c-130 -56 -308 -98 -458
-109 -109 -8 -143 -5 -137 11 2 7 48 17 108 24 136 16 264 46 369 87 98 39
106 40 140 21z m170 -54 c0 -13 -198 -95 -301 -125 -145 -42 -295 -60 -379
-47 -43 7 -42 7 35 14 138 12 363 75 505 140 54 25 140 36 140 18z"/>
</g>
</svg>
