<?xml version="1.0" standalone="no"?>
<!DOCTYPE svg PUBLIC "-//W3C//DTD SVG 20010904//EN"
 "http://www.w3.org/TR/2001/REC-SVG-20010904/DTD/svg10.dtd">
<svg version="1.0" xmlns="http://www.w3.org/2000/svg"
 width="2000.000000pt" height="589.000000pt" viewBox="0 0 2000.000000 589.000000"
 preserveAspectRatio="xMidYMid meet">
<metadata>
Created by potrace 1.16, written by Peter Selinger 2001-2019
</metadata>
<g transform="translate(0.000000,589.000000) scale(0.100000,-0.100000)"
fill="#000000" stroke="none">
<path d="M178 5674 c-38 -55 -46 -79 -29 -86 5 -1 44 -79 86 -173 43 -93 93
-204 112 -245 60 -127 80 -174 88 -198 4 -13 52 -118 106 -234 54 -115 99
-211 99 -213 0 -2 39 -85 86 -185 47 -100 98 -214 114 -253 15 -40 83 -189
150 -332 154 -328 227 -488 250 -545 19 -48 174 -385 246 -537 l44 -93 0
-1122 1 -1123 40 -42 40 -43 369 0 369 0 40 43 40 42 1 1110 0 1109 34 76 c19
41 68 152 110 245 41 94 124 277 185 407 60 131 135 295 164 365 30 70 86 196
125 278 175 376 272 586 272 591 0 7 52 125 98 224 192 411 392 856 392 873 0
5 -13 28 -30 52 -16 24 -30 48 -30 54 0 8 -126 11 -411 11 -349 0 -413 -2
-425 -15 -8 -8 -21 -18 -28 -22 -13 -8 -52 -85 -151 -303 -29 -63 -80 -171
-113 -240 -62 -131 -122 -265 -122 -274 0 -3 -20 -47 -44 -98 -24 -51 -75
-160 -114 -243 -38 -82 -112 -242 -164 -355 -52 -113 -119 -260 -148 -327
l-53 -121 -44 96 c-164 358 -249 546 -273 607 -15 39 -58 135 -95 215 -37 80
-101 219 -142 310 -41 91 -88 194 -105 230 -16 36 -46 103 -65 150 -19 47 -62
144 -95 217 -50 108 -66 134 -90 144 -15 6 -28 15 -28 20 0 5 -182 9 -412 9
l-413 -1 -37 -55z"/>
<path d="M4528 5685 l-38 -42 0 -2654 1 -2654 40 -42 40 -43 1473 0 1473 0 46
42 47 42 0 361 0 361 -44 37 -45 37 -1065 0 -1066 0 0 710 0 710 983 0 983 0
47 48 47 48 0 350 0 350 -48 47 -48 47 -982 0 -982 0 0 705 0 705 1068 0 1067
1 43 40 42 40 0 358 0 357 -47 42 -46 42 -1476 -1 -1476 -1 -37 -43z"/>
<path d="M8468 5685 l-38 -42 0 -2654 1 -2654 40 -42 40 -43 1478 0 1479 0 41
41 41 41 0 363 0 363 -42 36 -42 36 -1068 0 -1068 0 0 710 0 710 983 0 983 0
42 43 42 43 0 360 0 360 -43 42 -43 42 -982 0 -982 0 0 705 0 705 1066 0 1067
0 43 36 44 35 0 364 0 364 -42 40 -43 40 -1480 0 -1480 -1 -37 -43z"/>
<path d="M12492 5687 l-42 -42 0 -363 0 -362 41 -38 42 -37 923 -5 923 -5 -40
-70 c-23 -38 -71 -128 -107 -200 -84 -167 -223 -430 -327 -620 -92 -168 -148
-275 -151 -290 -1 -6 -27 -56 -59 -113 l-57 -102 -438 0 -438 0 -41 -46 -41
-47 0 -356 0 -355 42 -43 42 -43 209 0 208 0 -47 -87 c-26 -49 -64 -117 -84
-153 -21 -36 -76 -139 -122 -230 -47 -91 -145 -275 -218 -410 -73 -135 -175
-326 -225 -425 -50 -99 -101 -196 -113 -215 -21 -34 -22 -44 -22 -365 l1 -330
40 -43 40 -42 1520 0 1520 0 45 42 44 41 0 364 0 363 -41 38 -42 37 -1028 5
-1029 5 95 175 c52 96 133 249 179 340 107 212 284 549 375 715 39 72 74 140
77 153 l6 22 447 0 447 0 42 43 42 43 0 354 0 355 -41 47 -40 48 -219 2 -218
3 80 150 c44 83 114 213 156 290 42 77 110 208 152 290 42 83 130 249 195 370
65 121 149 279 187 350 l67 130 0 310 0 310 -40 43 -40 42 -1417 0 -1417 -1
-43 -42z"/>
<path d="M16222 5677 c-18 -29 -32 -58 -32 -64 0 -6 11 -35 24 -64 13 -30 42
-97 64 -149 22 -52 66 -149 97 -215 31 -66 79 -169 107 -230 28 -60 69 -150
93 -200 23 -49 53 -117 68 -150 75 -174 152 -343 357 -780 23 -49 58 -128 77
-175 20 -47 83 -186 140 -310 159 -340 269 -582 278 -609 4 -14 23 -56 41 -95
l34 -70 0 -1116 1 -1115 40 -42 40 -43 369 0 370 0 35 38 34 37 1 1112 0 1111
49 104 c97 206 234 504 246 538 14 39 91 210 130 292 42 85 271 590 285 628 8
19 53 120 102 223 48 104 88 190 88 192 0 2 41 90 91 197 50 106 102 221 115
255 13 34 57 134 99 223 41 89 75 163 75 165 0 2 27 61 60 130 l61 125 -26 28
c-14 15 -31 39 -38 55 l-12 27 -412 0 c-227 0 -413 -4 -413 -8 0 -5 -11 -14
-25 -20 -26 -12 -106 -166 -170 -327 -15 -38 -50 -117 -78 -175 -27 -58 -73
-157 -102 -220 -29 -63 -77 -167 -108 -230 -77 -163 -128 -273 -131 -285 -3
-12 -14 -37 -114 -255 -44 -96 -109 -236 -144 -310 -36 -74 -67 -142 -70 -150
-5 -14 -74 120 -93 181 -4 13 -48 112 -98 219 -173 376 -299 656 -327 725 -15
39 -56 131 -90 205 -34 74 -97 212 -140 305 -43 94 -92 201 -109 238 -21 44
-40 72 -56 79 -14 6 -25 15 -25 20 0 4 -186 8 -413 8 l-413 0 -32 -53z"/>
</g>
</svg>
